{
	"asset":{
		"generator":"Khronos glTF Blender I/O v4.2.60",
		"version":"2.0"
	},
	"scene":0,
	"scenes":[
		{
			"name":"Scene",
			"nodes":[
				0
			]
		}
	],
	"nodes":[
		{
			"mesh":0,
			"name":"Mesh_0"
		}
	],
	"materials":[
		{
			"doubleSided":true,
			"name":"Material_0.003",
			"pbrMetallicRoughness":{
				"baseColorTexture":{
					"index":0
				},
				"metallicFactor":0,
				"roughnessFactor":0.800000011920929
			}
		}
	],
	"meshes":[
		{
			"name":"Mesh_0.003",
			"primitives":[
				{
					"attributes":{
						"POSITION":0,
						"NORMAL":1,
						"TEXCOORD_0":2
					},
					"indices":3,
					"material":0
				}
			]
		}
	],
	"textures":[
		{
			"sampler":0,
			"source":0
		}
	],
	"images":[
		{
			"mimeType":"image/jpeg",
			"name":"Image_0",
			"uri":"Image_0.jpg"
		}
	],
	"accessors":[
		{
			"bufferView":0,
			"componentType":5126,
			"count":35473,
			"max":[
				0.9812570214271545,
				0.970300018787384,
				0.9969720244407654
			],
			"min":[
				-0.9842609763145447,
				-0.9766979813575745,
				-0.9947429895401001
			],
			"type":"VEC3"
		},
		{
			"bufferView":1,
			"componentType":5126,
			"count":35473,
			"type":"VEC3"
		},
		{
			"bufferView":2,
			"componentType":5126,
			"count":35473,
			"type":"VEC2"
		},
		{
			"bufferView":3,
			"componentType":5123,
			"count":149985,
			"type":"SCALAR"
		}
	],
	"bufferViews":[
		{
			"buffer":0,
			"byteLength":425676,
			"byteOffset":0,
			"target":34962
		},
		{
			"buffer":0,
			"byteLength":425676,
			"byteOffset":425676,
			"target":34962
		},
		{
			"buffer":0,
			"byteLength":283784,
			"byteOffset":851352,
			"target":34962
		},
		{
			"buffer":0,
			"byteLength":299970,
			"byteOffset":1135136,
			"target":34963
		}
	],
	"samplers":[
		{
			"magFilter":9729,
			"minFilter":9987
		}
	],
	"buffers":[
		{
			"byteLength":1435108,
			"uri":"herb0001.bin"
		}
	]
}
