{
	"asset":{
		"generator":"Khronos glTF Blender I/O v4.2.60",
		"version":"2.0"
	},
	"scene":0,
	"scenes":[
		{
			"name":"Scene",
			"nodes":[
				0
			]
		}
	],
	"nodes":[
		{
			"mesh":0,
			"name":"Mesh_0.023"
		}
	],
	"materials":[
		{
			"doubleSided":true,
			"name":"Material_0.023",
			"pbrMetallicRoughness":{
				"baseColorTexture":{
					"index":0
				},
				"metallicFactor":0,
				"roughnessFactor":0.800000011920929
			}
		}
	],
	"meshes":[
		{
			"name":"Mesh_0.023",
			"primitives":[
				{
					"attributes":{
						"POSITION":0,
						"NORMAL":1,
						"TEXCOORD_0":2
					},
					"indices":3,
					"material":0
				}
			]
		}
	],
	"textures":[
		{
			"sampler":0,
			"source":0
		}
	],
	"images":[
		{
			"mimeType":"image/jpeg",
			"name":"Image_0",
			"uri":"Image_0.jpg"
		}
	],
	"accessors":[
		{
			"bufferView":0,
			"componentType":5126,
			"count":40598,
			"max":[
				0.3439269959926605,
				0.9960500001907349,
				0.4409340023994446
			],
			"min":[
				-0.3528220057487488,
				-1.0274029970169067,
				-0.45250898599624634
			],
			"type":"VEC3"
		},
		{
			"bufferView":1,
			"componentType":5126,
			"count":40598,
			"type":"VEC3"
		},
		{
			"bufferView":2,
			"componentType":5126,
			"count":40598,
			"type":"VEC2"
		},
		{
			"bufferView":3,
			"componentType":5123,
			"count":150000,
			"type":"SCALAR"
		}
	],
	"bufferViews":[
		{
			"buffer":0,
			"byteLength":487176,
			"byteOffset":0,
			"target":34962
		},
		{
			"buffer":0,
			"byteLength":487176,
			"byteOffset":487176,
			"target":34962
		},
		{
			"buffer":0,
			"byteLength":324784,
			"byteOffset":974352,
			"target":34962
		},
		{
			"buffer":0,
			"byteLength":300000,
			"byteOffset":1299136,
			"target":34963
		}
	],
	"samplers":[
		{
			"magFilter":9729,
			"minFilter":9987
		}
	],
	"buffers":[
		{
			"byteLength":1599136,
			"uri":"HERB0072.bin"
		}
	]
}
