{
	"asset":{
		"generator":"Khronos glTF Blender I/O v4.2.60",
		"version":"2.0"
	},
	"scene":0,
	"scenes":[
		{
			"name":"Scene",
			"nodes":[
				0
			]
		}
	],
	"nodes":[
		{
			"mesh":0,
			"name":"Mesh_0.021"
		}
	],
	"materials":[
		{
			"doubleSided":true,
			"name":"Material_0.021",
			"pbrMetallicRoughness":{
				"baseColorTexture":{
					"index":0
				},
				"metallicFactor":0,
				"roughnessFactor":0.800000011920929
			}
		}
	],
	"meshes":[
		{
			"name":"Mesh_0.021",
			"primitives":[
				{
					"attributes":{
						"POSITION":0,
						"NORMAL":1,
						"TEXCOORD_0":2
					},
					"indices":3,
					"material":0
				}
			]
		}
	],
	"textures":[
		{
			"sampler":0,
			"source":0
		}
	],
	"images":[
		{
			"mimeType":"image/jpeg",
			"name":"Image_0",
			"uri":"Image_0.jpg"
		}
	],
	"accessors":[
		{
			"bufferView":0,
			"componentType":5126,
			"count":33810,
			"max":[
				0.9415500164031982,
				0.9979580044746399,
				0.8232690095901489
			],
			"min":[
				-0.9311609864234924,
				-1.0004600286483765,
				-0.820173978805542
			],
			"type":"VEC3"
		},
		{
			"bufferView":1,
			"componentType":5126,
			"count":33810,
			"type":"VEC3"
		},
		{
			"bufferView":2,
			"componentType":5126,
			"count":33810,
			"type":"VEC2"
		},
		{
			"bufferView":3,
			"componentType":5123,
			"count":149997,
			"type":"SCALAR"
		}
	],
	"bufferViews":[
		{
			"buffer":0,
			"byteLength":405720,
			"byteOffset":0,
			"target":34962
		},
		{
			"buffer":0,
			"byteLength":405720,
			"byteOffset":405720,
			"target":34962
		},
		{
			"buffer":0,
			"byteLength":270480,
			"byteOffset":811440,
			"target":34962
		},
		{
			"buffer":0,
			"byteLength":299994,
			"byteOffset":1081920,
			"target":34963
		}
	],
	"samplers":[
		{
			"magFilter":9729,
			"minFilter":9987
		}
	],
	"buffers":[
		{
			"byteLength":1381916,
			"uri":"HERB0057.bin"
		}
	]
}
