{
	"asset":{
		"generator":"Khronos glTF Blender I/O v4.2.60",
		"version":"2.0"
	},
	"scene":0,
	"scenes":[
		{
			"name":"Scene",
			"nodes":[
				0
			]
		}
	],
	"nodes":[
		{
			"mesh":0,
			"name":"Mesh_0.009"
		}
	],
	"materials":[
		{
			"doubleSided":true,
			"name":"Material_0.009",
			"pbrMetallicRoughness":{
				"baseColorTexture":{
					"index":0
				},
				"metallicFactor":0,
				"roughnessFactor":0.800000011920929
			}
		}
	],
	"meshes":[
		{
			"name":"Mesh_0.009",
			"primitives":[
				{
					"attributes":{
						"POSITION":0,
						"NORMAL":1,
						"TEXCOORD_0":2
					},
					"indices":3,
					"material":0
				}
			]
		}
	],
	"textures":[
		{
			"sampler":0,
			"source":0
		}
	],
	"images":[
		{
			"mimeType":"image/jpeg",
			"name":"Image_0",
			"uri":"Image_0.jpg"
		}
	],
	"accessors":[
		{
			"bufferView":0,
			"componentType":5126,
			"count":39282,
			"max":[
				0.881426990032196,
				1.0000360012054443,
				0.9325569868087769
			],
			"min":[
				-0.8972100019454956,
				-1.003301978111267,
				-0.9306390285491943
			],
			"type":"VEC3"
		},
		{
			"bufferView":1,
			"componentType":5126,
			"count":39282,
			"type":"VEC3"
		},
		{
			"bufferView":2,
			"componentType":5126,
			"count":39282,
			"type":"VEC2"
		},
		{
			"bufferView":3,
			"componentType":5123,
			"count":149997,
			"type":"SCALAR"
		}
	],
	"bufferViews":[
		{
			"buffer":0,
			"byteLength":471384,
			"byteOffset":0,
			"target":34962
		},
		{
			"buffer":0,
			"byteLength":471384,
			"byteOffset":471384,
			"target":34962
		},
		{
			"buffer":0,
			"byteLength":314256,
			"byteOffset":942768,
			"target":34962
		},
		{
			"buffer":0,
			"byteLength":299994,
			"byteOffset":1257024,
			"target":34963
		}
	],
	"samplers":[
		{
			"magFilter":9729,
			"minFilter":9987
		}
	],
	"buffers":[
		{
			"byteLength":1557020,
			"uri":"herb0006.bin"
		}
	]
}
