{
	"asset":{
		"generator":"Khronos glTF Blender I/O v4.2.60",
		"version":"2.0"
	},
	"scene":0,
	"scenes":[
		{
			"name":"Scene",
			"nodes":[
				0
			]
		}
	],
	"nodes":[
		{
			"mesh":0,
			"name":"Mesh_0"
		}
	],
	"materials":[
		{
			"doubleSided":true,
			"name":"Material_0.015",
			"pbrMetallicRoughness":{
				"baseColorTexture":{
					"index":0
				},
				"metallicFactor":0,
				"roughnessFactor":0.800000011920929
			}
		}
	],
	"meshes":[
		{
			"name":"Mesh_0.015",
			"primitives":[
				{
					"attributes":{
						"POSITION":0,
						"NORMAL":1,
						"TEXCOORD_0":2
					},
					"indices":3,
					"material":0
				}
			]
		}
	],
	"textures":[
		{
			"sampler":0,
			"source":0
		}
	],
	"images":[
		{
			"mimeType":"image/jpeg",
			"name":"Image_0",
			"uri":"Image_0.jpg"
		}
	],
	"accessors":[
		{
			"bufferView":0,
			"componentType":5126,
			"count":35592,
			"max":[
				0.9275019764900208,
				1.0008900165557861,
				0.8447700142860413
			],
			"min":[
				-0.9323409795761108,
				-1.0000629425048828,
				-0.8616880178451538
			],
			"type":"VEC3"
		},
		{
			"bufferView":1,
			"componentType":5126,
			"count":35592,
			"type":"VEC3"
		},
		{
			"bufferView":2,
			"componentType":5126,
			"count":35592,
			"type":"VEC2"
		},
		{
			"bufferView":3,
			"componentType":5123,
			"count":149997,
			"type":"SCALAR"
		}
	],
	"bufferViews":[
		{
			"buffer":0,
			"byteLength":427104,
			"byteOffset":0,
			"target":34962
		},
		{
			"buffer":0,
			"byteLength":427104,
			"byteOffset":427104,
			"target":34962
		},
		{
			"buffer":0,
			"byteLength":284736,
			"byteOffset":854208,
			"target":34962
		},
		{
			"buffer":0,
			"byteLength":299994,
			"byteOffset":1138944,
			"target":34963
		}
	],
	"samplers":[
		{
			"magFilter":9729,
			"minFilter":9987
		}
	],
	"buffers":[
		{
			"byteLength":1438940,
			"uri":"shrub0065.bin"
		}
	]
}
