{
	"asset":{
		"generator":"Khronos glTF Blender I/O v4.2.60",
		"version":"2.0"
	},
	"scene":0,
	"scenes":[
		{
			"name":"Scene",
			"nodes":[
				0
			]
		}
	],
	"nodes":[
		{
			"mesh":0,
			"name":"Mesh_0.007"
		}
	],
	"materials":[
		{
			"doubleSided":true,
			"name":"Material_0.007",
			"pbrMetallicRoughness":{
				"baseColorTexture":{
					"index":0
				},
				"metallicFactor":0,
				"roughnessFactor":0.800000011920929
			}
		}
	],
	"meshes":[
		{
			"name":"Mesh_0.007",
			"primitives":[
				{
					"attributes":{
						"POSITION":0,
						"NORMAL":1,
						"TEXCOORD_0":2
					},
					"indices":3,
					"material":0
				}
			]
		}
	],
	"textures":[
		{
			"sampler":0,
			"source":0
		}
	],
	"images":[
		{
			"mimeType":"image/jpeg",
			"name":"Image_0",
			"uri":"Image_0.jpg"
		}
	],
	"accessors":[
		{
			"bufferView":0,
			"componentType":5126,
			"count":48248,
			"max":[
				0.7623770236968994,
				1.0024299621582031,
				0.7837870121002197
			],
			"min":[
				-0.7576590180397034,
				-1.0021439790725708,
				-0.7638000249862671
			],
			"type":"VEC3"
		},
		{
			"bufferView":1,
			"componentType":5126,
			"count":48248,
			"type":"VEC3"
		},
		{
			"bufferView":2,
			"componentType":5126,
			"count":48248,
			"type":"VEC2"
		},
		{
			"bufferView":3,
			"componentType":5123,
			"count":149997,
			"type":"SCALAR"
		}
	],
	"bufferViews":[
		{
			"buffer":0,
			"byteLength":578976,
			"byteOffset":0,
			"target":34962
		},
		{
			"buffer":0,
			"byteLength":578976,
			"byteOffset":578976,
			"target":34962
		},
		{
			"buffer":0,
			"byteLength":385984,
			"byteOffset":1157952,
			"target":34962
		},
		{
			"buffer":0,
			"byteLength":299994,
			"byteOffset":1543936,
			"target":34963
		}
	],
	"samplers":[
		{
			"magFilter":9729,
			"minFilter":9987
		}
	],
	"buffers":[
		{
			"byteLength":1843932,
			"uri":"herb0004.bin"
		}
	]
}
