{
	"asset":{
		"generator":"Khronos glTF Blender I/O v4.2.60",
		"version":"2.0"
	},
	"scene":0,
	"scenes":[
		{
			"name":"Scene",
			"nodes":[
				0
			]
		}
	],
	"nodes":[
		{
			"mesh":0,
			"name":"Mesh_0.029"
		}
	],
	"materials":[
		{
			"doubleSided":true,
			"name":"Material_0.029",
			"pbrMetallicRoughness":{
				"baseColorTexture":{
					"index":0
				},
				"metallicFactor":0,
				"roughnessFactor":0.800000011920929
			}
		}
	],
	"meshes":[
		{
			"name":"Mesh_0.029",
			"primitives":[
				{
					"attributes":{
						"POSITION":0,
						"NORMAL":1,
						"TEXCOORD_0":2
					},
					"indices":3,
					"material":0
				}
			]
		}
	],
	"textures":[
		{
			"sampler":0,
			"source":0
		}
	],
	"images":[
		{
			"mimeType":"image/jpeg",
			"name":"Image_0",
			"uri":"Image_0.jpg"
		}
	],
	"accessors":[
		{
			"bufferView":0,
			"componentType":5126,
			"count":58359,
			"max":[
				0.5399960279464722,
				0.9843770265579224,
				0.657712996006012
			],
			"min":[
				-0.6939240097999573,
				-1.0176969766616821,
				-0.6312299966812134
			],
			"type":"VEC3"
		},
		{
			"bufferView":1,
			"componentType":5126,
			"count":58359,
			"type":"VEC3"
		},
		{
			"bufferView":2,
			"componentType":5126,
			"count":58359,
			"type":"VEC2"
		},
		{
			"bufferView":3,
			"componentType":5123,
			"count":149997,
			"type":"SCALAR"
		}
	],
	"bufferViews":[
		{
			"buffer":0,
			"byteLength":700308,
			"byteOffset":0,
			"target":34962
		},
		{
			"buffer":0,
			"byteLength":700308,
			"byteOffset":700308,
			"target":34962
		},
		{
			"buffer":0,
			"byteLength":466872,
			"byteOffset":1400616,
			"target":34962
		},
		{
			"buffer":0,
			"byteLength":299994,
			"byteOffset":1867488,
			"target":34963
		}
	],
	"samplers":[
		{
			"magFilter":9729,
			"minFilter":9987
		}
	],
	"buffers":[
		{
			"byteLength":2167484,
			"uri":"HERB0090.bin"
		}
	]
}
