{
	"asset":{
		"generator":"Khronos glTF Blender I/O v4.2.60",
		"version":"2.0"
	},
	"scene":0,
	"scenes":[
		{
			"name":"Scene",
			"nodes":[
				0
			]
		}
	],
	"nodes":[
		{
			"mesh":0,
			"name":"Mesh_0.043"
		}
	],
	"materials":[
		{
			"doubleSided":true,
			"name":"Material_0.043",
			"pbrMetallicRoughness":{
				"baseColorTexture":{
					"index":0
				},
				"metallicFactor":0,
				"roughnessFactor":0.800000011920929
			}
		}
	],
	"meshes":[
		{
			"name":"Mesh_0.043",
			"primitives":[
				{
					"attributes":{
						"POSITION":0,
						"NORMAL":1,
						"TEXCOORD_0":2
					},
					"indices":3,
					"material":0
				}
			]
		}
	],
	"textures":[
		{
			"sampler":0,
			"source":0
		}
	],
	"images":[
		{
			"mimeType":"image/jpeg",
			"name":"Image_0",
			"uri":"Image_0.jpg"
		}
	],
	"accessors":[
		{
			"bufferView":0,
			"componentType":5126,
			"count":40438,
			"max":[
				0.8021789789199829,
				0.9865000247955322,
				0.9567540287971497
			],
			"min":[
				-0.806538999080658,
				-0.9926859736442566,
				-0.965038001537323
			],
			"type":"VEC3"
		},
		{
			"bufferView":1,
			"componentType":5126,
			"count":40438,
			"type":"VEC3"
		},
		{
			"bufferView":2,
			"componentType":5126,
			"count":40438,
			"type":"VEC2"
		},
		{
			"bufferView":3,
			"componentType":5123,
			"count":149997,
			"type":"SCALAR"
		}
	],
	"bufferViews":[
		{
			"buffer":0,
			"byteLength":485256,
			"byteOffset":0,
			"target":34962
		},
		{
			"buffer":0,
			"byteLength":485256,
			"byteOffset":485256,
			"target":34962
		},
		{
			"buffer":0,
			"byteLength":323504,
			"byteOffset":970512,
			"target":34962
		},
		{
			"buffer":0,
			"byteLength":299994,
			"byteOffset":1294016,
			"target":34963
		}
	],
	"samplers":[
		{
			"magFilter":9729,
			"minFilter":9987
		}
	],
	"buffers":[
		{
			"byteLength":1594012,
			"uri":"SHRUB0069.bin"
		}
	]
}
