{
	"asset":{
		"generator":"Khronos glTF Blender I/O v4.2.60",
		"version":"2.0"
	},
	"scene":0,
	"scenes":[
		{
			"name":"Scene",
			"nodes":[
				0
			]
		}
	],
	"nodes":[
		{
			"mesh":0,
			"name":"Mesh_0.003"
		}
	],
	"materials":[
		{
			"doubleSided":true,
			"name":"Material_0.003",
			"pbrMetallicRoughness":{
				"baseColorTexture":{
					"index":0
				},
				"metallicFactor":0,
				"roughnessFactor":0.800000011920929
			}
		}
	],
	"meshes":[
		{
			"name":"Mesh_0.003",
			"primitives":[
				{
					"attributes":{
						"POSITION":0,
						"NORMAL":1,
						"TEXCOORD_0":2
					},
					"indices":3,
					"material":0
				}
			]
		}
	],
	"textures":[
		{
			"sampler":0,
			"source":0
		}
	],
	"images":[
		{
			"mimeType":"image/jpeg",
			"name":"Image_0",
			"uri":"Image_0.jpg"
		}
	],
	"accessors":[
		{
			"bufferView":0,
			"componentType":5126,
			"count":36771,
			"max":[
				0.8461620211601257,
				0.9860309958457947,
				0.8864700198173523
			],
			"min":[
				-0.8192409873008728,
				-1.0078459978103638,
				-0.8905649781227112
			],
			"type":"VEC3"
		},
		{
			"bufferView":1,
			"componentType":5126,
			"count":36771,
			"type":"VEC3"
		},
		{
			"bufferView":2,
			"componentType":5126,
			"count":36771,
			"type":"VEC2"
		},
		{
			"bufferView":3,
			"componentType":5123,
			"count":149997,
			"type":"SCALAR"
		}
	],
	"bufferViews":[
		{
			"buffer":0,
			"byteLength":441252,
			"byteOffset":0,
			"target":34962
		},
		{
			"buffer":0,
			"byteLength":441252,
			"byteOffset":441252,
			"target":34962
		},
		{
			"buffer":0,
			"byteLength":294168,
			"byteOffset":882504,
			"target":34962
		},
		{
			"buffer":0,
			"byteLength":299994,
			"byteOffset":1176672,
			"target":34963
		}
	],
	"samplers":[
		{
			"magFilter":9729,
			"minFilter":9987
		}
	],
	"buffers":[
		{
			"byteLength":1476668,
			"uri":"creeper0050.bin"
		}
	]
}
