{
	"asset":{
		"generator":"Khronos glTF Blender I/O v4.2.60",
		"version":"2.0"
	},
	"scene":0,
	"scenes":[
		{
			"name":"Scene",
			"nodes":[
				0
			]
		}
	],
	"nodes":[
		{
			"mesh":0,
			"name":"Mesh_0.061"
		}
	],
	"materials":[
		{
			"doubleSided":true,
			"name":"Material_0.061",
			"pbrMetallicRoughness":{
				"baseColorTexture":{
					"index":0
				},
				"metallicFactor":0,
				"roughnessFactor":0.800000011920929
			}
		}
	],
	"meshes":[
		{
			"name":"Mesh_0.061",
			"primitives":[
				{
					"attributes":{
						"POSITION":0,
						"NORMAL":1,
						"TEXCOORD_0":2
					},
					"indices":3,
					"material":0
				}
			]
		}
	],
	"textures":[
		{
			"sampler":0,
			"source":0
		}
	],
	"images":[
		{
			"mimeType":"image/jpeg",
			"name":"Image_0",
			"uri":"Image_0.jpg"
		}
	],
	"accessors":[
		{
			"bufferView":0,
			"componentType":5126,
			"count":33598,
			"max":[
				0.8407589793205261,
				0.9934960007667542,
				0.8278650045394897
			],
			"min":[
				-0.8106949925422668,
				-1.0032750368118286,
				-0.8355889916419983
			],
			"type":"VEC3"
		},
		{
			"bufferView":1,
			"componentType":5126,
			"count":33598,
			"type":"VEC3"
		},
		{
			"bufferView":2,
			"componentType":5126,
			"count":33598,
			"type":"VEC2"
		},
		{
			"bufferView":3,
			"componentType":5123,
			"count":150000,
			"type":"SCALAR"
		}
	],
	"bufferViews":[
		{
			"buffer":0,
			"byteLength":403176,
			"byteOffset":0,
			"target":34962
		},
		{
			"buffer":0,
			"byteLength":403176,
			"byteOffset":403176,
			"target":34962
		},
		{
			"buffer":0,
			"byteLength":268784,
			"byteOffset":806352,
			"target":34962
		},
		{
			"buffer":0,
			"byteLength":300000,
			"byteOffset":1075136,
			"target":34963
		}
	],
	"samplers":[
		{
			"magFilter":9729,
			"minFilter":9987
		}
	],
	"buffers":[
		{
			"byteLength":1375136,
			"uri":"TREE0085.bin"
		}
	]
}
