{
	"asset":{
		"generator":"Khronos glTF Blender I/O v4.2.60",
		"version":"2.0"
	},
	"scene":0,
	"scenes":[
		{
			"name":"Scene",
			"nodes":[
				0
			]
		}
	],
	"nodes":[
		{
			"mesh":0,
			"name":"Mesh_0"
		}
	],
	"materials":[
		{
			"doubleSided":true,
			"name":"Material_0.009",
			"pbrMetallicRoughness":{
				"baseColorTexture":{
					"index":0
				},
				"metallicFactor":0,
				"roughnessFactor":0.800000011920929
			}
		}
	],
	"meshes":[
		{
			"name":"Mesh_0.009",
			"primitives":[
				{
					"attributes":{
						"POSITION":0,
						"NORMAL":1,
						"TEXCOORD_0":2
					},
					"indices":3,
					"material":0
				}
			]
		}
	],
	"textures":[
		{
			"sampler":0,
			"source":0
		}
	],
	"images":[
		{
			"mimeType":"image/jpeg",
			"name":"Image_0",
			"uri":"Image_0.jpg"
		}
	],
	"accessors":[
		{
			"bufferView":0,
			"componentType":5126,
			"count":34898,
			"max":[
				0.9650239944458008,
				0.8581399917602539,
				0.9957460165023804
			],
			"min":[
				-0.9484459757804871,
				-0.8706110119819641,
				-1.0023200511932373
			],
			"type":"VEC3"
		},
		{
			"bufferView":1,
			"componentType":5126,
			"count":34898,
			"type":"VEC3"
		},
		{
			"bufferView":2,
			"componentType":5126,
			"count":34898,
			"type":"VEC2"
		},
		{
			"bufferView":3,
			"componentType":5123,
			"count":150000,
			"type":"SCALAR"
		}
	],
	"bufferViews":[
		{
			"buffer":0,
			"byteLength":418776,
			"byteOffset":0,
			"target":34962
		},
		{
			"buffer":0,
			"byteLength":418776,
			"byteOffset":418776,
			"target":34962
		},
		{
			"buffer":0,
			"byteLength":279184,
			"byteOffset":837552,
			"target":34962
		},
		{
			"buffer":0,
			"byteLength":300000,
			"byteOffset":1116736,
			"target":34963
		}
	],
	"samplers":[
		{
			"magFilter":9729,
			"minFilter":9987
		}
	],
	"buffers":[
		{
			"byteLength":1416736,
			"uri":"herb0056.bin"
		}
	]
}
