{
	"asset":{
		"generator":"Khronos glTF Blender I/O v4.2.60",
		"version":"2.0"
	},
	"scene":0,
	"scenes":[
		{
			"name":"Scene",
			"nodes":[
				0
			]
		}
	],
	"nodes":[
		{
			"mesh":0,
			"name":"Mesh_0.025"
		}
	],
	"materials":[
		{
			"doubleSided":true,
			"name":"Material_0.025",
			"pbrMetallicRoughness":{
				"baseColorTexture":{
					"index":0
				},
				"metallicFactor":0,
				"roughnessFactor":0.800000011920929
			}
		}
	],
	"meshes":[
		{
			"name":"Mesh_0.025",
			"primitives":[
				{
					"attributes":{
						"POSITION":0,
						"NORMAL":1,
						"TEXCOORD_0":2
					},
					"indices":3,
					"material":0
				}
			]
		}
	],
	"textures":[
		{
			"sampler":0,
			"source":0
		}
	],
	"images":[
		{
			"mimeType":"image/jpeg",
			"name":"Image_0",
			"uri":"Image_0.jpg"
		}
	],
	"accessors":[
		{
			"bufferView":0,
			"componentType":5126,
			"count":41755,
			"max":[
				0.9666810035705566,
				0.7081220149993896,
				0.9934149980545044
			],
			"min":[
				-0.9680770039558411,
				-0.7227020263671875,
				-0.9980800151824951
			],
			"type":"VEC3"
		},
		{
			"bufferView":1,
			"componentType":5126,
			"count":41755,
			"type":"VEC3"
		},
		{
			"bufferView":2,
			"componentType":5126,
			"count":41755,
			"type":"VEC2"
		},
		{
			"bufferView":3,
			"componentType":5123,
			"count":149997,
			"type":"SCALAR"
		}
	],
	"bufferViews":[
		{
			"buffer":0,
			"byteLength":501060,
			"byteOffset":0,
			"target":34962
		},
		{
			"buffer":0,
			"byteLength":501060,
			"byteOffset":501060,
			"target":34962
		},
		{
			"buffer":0,
			"byteLength":334040,
			"byteOffset":1002120,
			"target":34962
		},
		{
			"buffer":0,
			"byteLength":299994,
			"byteOffset":1336160,
			"target":34963
		}
	],
	"samplers":[
		{
			"magFilter":9729,
			"minFilter":9987
		}
	],
	"buffers":[
		{
			"byteLength":1636156,
			"uri":"HERB0080.bin"
		}
	]
}
