{
	"asset":{
		"generator":"Khronos glTF Blender I/O v4.2.60",
		"version":"2.0"
	},
	"scene":0,
	"scenes":[
		{
			"name":"Scene",
			"nodes":[
				0
			]
		}
	],
	"nodes":[
		{
			"mesh":0,
			"name":"Mesh_0.054"
		}
	],
	"materials":[
		{
			"doubleSided":true,
			"name":"Material_0.054",
			"pbrMetallicRoughness":{
				"baseColorTexture":{
					"index":0
				},
				"metallicFactor":0,
				"roughnessFactor":0.800000011920929
			}
		}
	],
	"meshes":[
		{
			"name":"Mesh_0.054",
			"primitives":[
				{
					"attributes":{
						"POSITION":0,
						"NORMAL":1,
						"TEXCOORD_0":2
					},
					"indices":3,
					"material":0
				}
			]
		}
	],
	"textures":[
		{
			"sampler":0,
			"source":0
		}
	],
	"images":[
		{
			"mimeType":"image/jpeg",
			"name":"Image_0",
			"uri":"Image_0.jpg"
		}
	],
	"accessors":[
		{
			"bufferView":0,
			"componentType":5126,
			"count":38314,
			"max":[
				0.8705800175666809,
				0.9990220069885254,
				0.7817149758338928
			],
			"min":[
				-0.8739629983901978,
				-1.0055500268936157,
				-0.7907750010490417
			],
			"type":"VEC3"
		},
		{
			"bufferView":1,
			"componentType":5126,
			"count":38314,
			"type":"VEC3"
		},
		{
			"bufferView":2,
			"componentType":5126,
			"count":38314,
			"type":"VEC2"
		},
		{
			"bufferView":3,
			"componentType":5123,
			"count":150000,
			"type":"SCALAR"
		}
	],
	"bufferViews":[
		{
			"buffer":0,
			"byteLength":459768,
			"byteOffset":0,
			"target":34962
		},
		{
			"buffer":0,
			"byteLength":459768,
			"byteOffset":459768,
			"target":34962
		},
		{
			"buffer":0,
			"byteLength":306512,
			"byteOffset":919536,
			"target":34962
		},
		{
			"buffer":0,
			"byteLength":300000,
			"byteOffset":1226048,
			"target":34963
		}
	],
	"samplers":[
		{
			"magFilter":9729,
			"minFilter":9987
		}
	],
	"buffers":[
		{
			"byteLength":1526048,
			"uri":"TREE0046.bin"
		}
	]
}
