{
	"asset":{
		"generator":"Khronos glTF Blender I/O v4.2.60",
		"version":"2.0"
	},
	"scene":0,
	"scenes":[
		{
			"name":"Scene",
			"nodes":[
				0
			]
		}
	],
	"nodes":[
		{
			"mesh":0,
			"name":"Mesh_0.052"
		}
	],
	"materials":[
		{
			"doubleSided":true,
			"name":"Material_0.052",
			"pbrMetallicRoughness":{
				"baseColorTexture":{
					"index":0
				},
				"metallicFactor":0,
				"roughnessFactor":0.800000011920929
			}
		}
	],
	"meshes":[
		{
			"name":"Mesh_0.052",
			"primitives":[
				{
					"attributes":{
						"POSITION":0,
						"NORMAL":1,
						"TEXCOORD_0":2
					},
					"indices":3,
					"material":0
				}
			]
		}
	],
	"textures":[
		{
			"sampler":0,
			"source":0
		}
	],
	"images":[
		{
			"mimeType":"image/jpeg",
			"name":"Image_0",
			"uri":"Image_0.jpg"
		}
	],
	"accessors":[
		{
			"bufferView":0,
			"componentType":5126,
			"count":29283,
			"max":[
				0.8687210083007812,
				0.996649980545044,
				1.00068998336792
			],
			"min":[
				-0.8784440159797668,
				-1.002835988998413,
				-0.998665988445282
			],
			"type":"VEC3"
		},
		{
			"bufferView":1,
			"componentType":5126,
			"count":29283,
			"type":"VEC3"
		},
		{
			"bufferView":2,
			"componentType":5126,
			"count":29283,
			"type":"VEC2"
		},
		{
			"bufferView":3,
			"componentType":5123,
			"count":150000,
			"type":"SCALAR"
		}
	],
	"bufferViews":[
		{
			"buffer":0,
			"byteLength":351396,
			"byteOffset":0,
			"target":34962
		},
		{
			"buffer":0,
			"byteLength":351396,
			"byteOffset":351396,
			"target":34962
		},
		{
			"buffer":0,
			"byteLength":234264,
			"byteOffset":702792,
			"target":34962
		},
		{
			"buffer":0,
			"byteLength":300000,
			"byteOffset":937056,
			"target":34963
		}
	],
	"samplers":[
		{
			"magFilter":9729,
			"minFilter":9987
		}
	],
	"buffers":[
		{
			"byteLength":1237056,
			"uri":"TREE0043.bin"
		}
	]
}
