{
	"asset":{
		"generator":"Khronos glTF Blender I/O v4.2.60",
		"version":"2.0"
	},
	"scene":0,
	"scenes":[
		{
			"name":"Scene",
			"nodes":[
				0
			]
		}
	],
	"nodes":[
		{
			"mesh":0,
			"name":"Mesh_0.028"
		}
	],
	"materials":[
		{
			"doubleSided":true,
			"name":"Material_0.028",
			"pbrMetallicRoughness":{
				"baseColorTexture":{
					"index":0
				},
				"metallicFactor":0,
				"roughnessFactor":0.800000011920929
			}
		}
	],
	"meshes":[
		{
			"name":"Mesh_0.028",
			"primitives":[
				{
					"attributes":{
						"POSITION":0,
						"NORMAL":1,
						"TEXCOORD_0":2
					},
					"indices":3,
					"material":0
				}
			]
		}
	],
	"textures":[
		{
			"sampler":0,
			"source":0
		}
	],
	"images":[
		{
			"mimeType":"image/jpeg",
			"name":"Image_0",
			"uri":"Image_0.jpg"
		}
	],
	"accessors":[
		{
			"bufferView":0,
			"componentType":5126,
			"count":55031,
			"max":[
				0.6571530103683472,
				0.9708200097084045,
				0.6296370029449463
			],
			"min":[
				-0.6709290146827698,
				-1.0021159648895264,
				-0.6386500000953674
			],
			"type":"VEC3"
		},
		{
			"bufferView":1,
			"componentType":5126,
			"count":55031,
			"type":"VEC3"
		},
		{
			"bufferView":2,
			"componentType":5126,
			"count":55031,
			"type":"VEC2"
		},
		{
			"bufferView":3,
			"componentType":5123,
			"count":142728,
			"type":"SCALAR"
		}
	],
	"bufferViews":[
		{
			"buffer":0,
			"byteLength":660372,
			"byteOffset":0,
			"target":34962
		},
		{
			"buffer":0,
			"byteLength":660372,
			"byteOffset":660372,
			"target":34962
		},
		{
			"buffer":0,
			"byteLength":440248,
			"byteOffset":1320744,
			"target":34962
		},
		{
			"buffer":0,
			"byteLength":285456,
			"byteOffset":1760992,
			"target":34963
		}
	],
	"samplers":[
		{
			"magFilter":9729,
			"minFilter":9987
		}
	],
	"buffers":[
		{
			"byteLength":2046448,
			"uri":"shrub0070.bin"
		}
	]
}
