{
	"asset":{
		"generator":"Khronos glTF Blender I/O v4.2.60",
		"version":"2.0"
	},
	"scene":0,
	"scenes":[
		{
			"name":"Scene",
			"nodes":[
				0
			]
		}
	],
	"nodes":[
		{
			"mesh":0,
			"name":"Mesh_0.017"
		}
	],
	"materials":[
		{
			"doubleSided":true,
			"name":"Material_0.017",
			"pbrMetallicRoughness":{
				"baseColorTexture":{
					"index":0
				},
				"metallicFactor":0,
				"roughnessFactor":0.800000011920929
			}
		}
	],
	"meshes":[
		{
			"name":"Mesh_0.017",
			"primitives":[
				{
					"attributes":{
						"POSITION":0,
						"NORMAL":1,
						"TEXCOORD_0":2
					},
					"indices":3,
					"material":0
				}
			]
		}
	],
	"textures":[
		{
			"sampler":0,
			"source":0
		}
	],
	"images":[
		{
			"mimeType":"image/jpeg",
			"name":"Image_0",
			"uri":"Image_0.jpg"
		}
	],
	"accessors":[
		{
			"bufferView":0,
			"componentType":5126,
			"count":37132,
			"max":[
				0.9561160206794739,
				0.8662880063056946,
				0.996097981929779
			],
			"min":[
				-0.948481023311615,
				-0.8901020288467407,
				-0.9896960258483887
			],
			"type":"VEC3"
		},
		{
			"bufferView":1,
			"componentType":5126,
			"count":37132,
			"type":"VEC3"
		},
		{
			"bufferView":2,
			"componentType":5126,
			"count":37132,
			"type":"VEC2"
		},
		{
			"bufferView":3,
			"componentType":5123,
			"count":149997,
			"type":"SCALAR"
		}
	],
	"bufferViews":[
		{
			"buffer":0,
			"byteLength":445584,
			"byteOffset":0,
			"target":34962
		},
		{
			"buffer":0,
			"byteLength":445584,
			"byteOffset":445584,
			"target":34962
		},
		{
			"buffer":0,
			"byteLength":297056,
			"byteOffset":891168,
			"target":34962
		},
		{
			"buffer":0,
			"byteLength":299994,
			"byteOffset":1188224,
			"target":34963
		}
	],
	"samplers":[
		{
			"magFilter":9729,
			"minFilter":9987
		}
	],
	"buffers":[
		{
			"byteLength":1488220,
			"uri":"HERB0047.bin"
		}
	]
}
