{
	"asset":{
		"generator":"Khronos glTF Blender I/O v4.2.60",
		"version":"2.0"
	},
	"scene":0,
	"scenes":[
		{
			"name":"Scene",
			"nodes":[
				0
			]
		}
	],
	"nodes":[
		{
			"mesh":0,
			"name":"Mesh_0.034"
		}
	],
	"materials":[
		{
			"doubleSided":true,
			"name":"Material_0.034",
			"pbrMetallicRoughness":{
				"baseColorTexture":{
					"index":0
				},
				"metallicFactor":0,
				"roughnessFactor":0.800000011920929
			}
		}
	],
	"meshes":[
		{
			"name":"Mesh_0.034",
			"primitives":[
				{
					"attributes":{
						"POSITION":0,
						"NORMAL":1,
						"TEXCOORD_0":2
					},
					"indices":3,
					"material":0
				}
			]
		}
	],
	"textures":[
		{
			"sampler":0,
			"source":0
		}
	],
	"images":[
		{
			"mimeType":"image/jpeg",
			"name":"Image_0",
			"uri":"Image_0.jpg"
		}
	],
	"accessors":[
		{
			"bufferView":0,
			"componentType":5126,
			"count":33819,
			"max":[
				0.8023009896278381,
				0.9982270002365112,
				0.6112880110740662
			],
			"min":[
				-0.8382930159568787,
				-1.0032999515533447,
				-0.6190990209579468
			],
			"type":"VEC3"
		},
		{
			"bufferView":1,
			"componentType":5126,
			"count":33819,
			"type":"VEC3"
		},
		{
			"bufferView":2,
			"componentType":5126,
			"count":33819,
			"type":"VEC2"
		},
		{
			"bufferView":3,
			"componentType":5123,
			"count":150000,
			"type":"SCALAR"
		}
	],
	"bufferViews":[
		{
			"buffer":0,
			"byteLength":405828,
			"byteOffset":0,
			"target":34962
		},
		{
			"buffer":0,
			"byteLength":405828,
			"byteOffset":405828,
			"target":34962
		},
		{
			"buffer":0,
			"byteLength":270552,
			"byteOffset":811656,
			"target":34962
		},
		{
			"buffer":0,
			"byteLength":300000,
			"byteOffset":1082208,
			"target":34963
		}
	],
	"samplers":[
		{
			"magFilter":9729,
			"minFilter":9987
		}
	],
	"buffers":[
		{
			"byteLength":1382208,
			"uri":"SHRUB0009.bin"
		}
	]
}
