{
	"asset":{
		"generator":"Khronos glTF Blender I/O v4.2.60",
		"version":"2.0"
	},
	"scene":0,
	"scenes":[
		{
			"name":"Scene",
			"nodes":[
				0
			]
		}
	],
	"nodes":[
		{
			"mesh":0,
			"name":"Mesh_0"
		}
	],
	"materials":[
		{
			"doubleSided":true,
			"name":"Material_0.023",
			"pbrMetallicRoughness":{
				"baseColorTexture":{
					"index":0
				},
				"metallicFactor":0,
				"roughnessFactor":0.800000011920929
			}
		}
	],
	"meshes":[
		{
			"name":"Mesh_0.023",
			"primitives":[
				{
					"attributes":{
						"POSITION":0,
						"NORMAL":1,
						"TEXCOORD_0":2
					},
					"indices":3,
					"material":0
				}
			]
		}
	],
	"textures":[
		{
			"sampler":0,
			"source":0
		}
	],
	"images":[
		{
			"mimeType":"image/jpeg",
			"name":"Image_0",
			"uri":"Image_0.jpg"
		}
	],
	"accessors":[
		{
			"bufferView":0,
			"componentType":5126,
			"count":48822,
			"max":[
				0.8905559778213501,
				0.9989879727363586,
				0.917864978313446
			],
			"min":[
				-0.9128919839859009,
				-1.012997031211853,
				-0.9520130157470703
			],
			"type":"VEC3"
		},
		{
			"bufferView":1,
			"componentType":5126,
			"count":48822,
			"type":"VEC3"
		},
		{
			"bufferView":2,
			"componentType":5126,
			"count":48822,
			"type":"VEC2"
		},
		{
			"bufferView":3,
			"componentType":5123,
			"count":149997,
			"type":"SCALAR"
		}
	],
	"bufferViews":[
		{
			"buffer":0,
			"byteLength":585864,
			"byteOffset":0,
			"target":34962
		},
		{
			"buffer":0,
			"byteLength":585864,
			"byteOffset":585864,
			"target":34962
		},
		{
			"buffer":0,
			"byteLength":390576,
			"byteOffset":1171728,
			"target":34962
		},
		{
			"buffer":0,
			"byteLength":299994,
			"byteOffset":1562304,
			"target":34963
		}
	],
	"samplers":[
		{
			"magFilter":9729,
			"minFilter":9987
		}
	],
	"buffers":[
		{
			"byteLength":1862300,
			"uri":"CLIMBER0021.bin"
		}
	]
}
