{
	"asset":{
		"generator":"Khronos glTF Blender I/O v4.2.60",
		"version":"2.0"
	},
	"scene":0,
	"scenes":[
		{
			"name":"Scene",
			"nodes":[
				0
			]
		}
	],
	"nodes":[
		{
			"mesh":0,
			"name":"Mesh_0.033"
		}
	],
	"materials":[
		{
			"doubleSided":true,
			"name":"Material_0.033",
			"pbrMetallicRoughness":{
				"baseColorTexture":{
					"index":0
				},
				"metallicFactor":0,
				"roughnessFactor":0.800000011920929
			}
		}
	],
	"meshes":[
		{
			"name":"Mesh_0.033",
			"primitives":[
				{
					"attributes":{
						"POSITION":0,
						"NORMAL":1,
						"TEXCOORD_0":2
					},
					"indices":3,
					"material":0
				}
			]
		}
	],
	"textures":[
		{
			"sampler":0,
			"source":0
		}
	],
	"images":[
		{
			"mimeType":"image/jpeg",
			"name":"Image_0",
			"uri":"Image_0.jpg"
		}
	],
	"accessors":[
		{
			"bufferView":0,
			"componentType":5126,
			"count":48185,
			"max":[
				0.9675729870796204,
				0.9800630211830139,
				0.9411360025405884
			],
			"min":[
				-0.9662349820137024,
				-0.9947620034217834,
				-0.9477729797363281
			],
			"type":"VEC3"
		},
		{
			"bufferView":1,
			"componentType":5126,
			"count":48185,
			"type":"VEC3"
		},
		{
			"bufferView":2,
			"componentType":5126,
			"count":48185,
			"type":"VEC2"
		},
		{
			"bufferView":3,
			"componentType":5123,
			"count":150000,
			"type":"SCALAR"
		}
	],
	"bufferViews":[
		{
			"buffer":0,
			"byteLength":578220,
			"byteOffset":0,
			"target":34962
		},
		{
			"buffer":0,
			"byteLength":578220,
			"byteOffset":578220,
			"target":34962
		},
		{
			"buffer":0,
			"byteLength":385480,
			"byteOffset":1156440,
			"target":34962
		},
		{
			"buffer":0,
			"byteLength":300000,
			"byteOffset":1541920,
			"target":34963
		}
	],
	"samplers":[
		{
			"magFilter":9729,
			"minFilter":9987
		}
	],
	"buffers":[
		{
			"byteLength":1841920,
			"uri":"SHRUB0008.bin"
		}
	]
}
