{
	"asset":{
		"generator":"Khronos glTF Blender I/O v4.2.60",
		"version":"2.0"
	},
	"scene":0,
	"scenes":[
		{
			"name":"Scene",
			"nodes":[
				0
			]
		}
	],
	"nodes":[
		{
			"mesh":0,
			"name":"Mesh_0"
		}
	],
	"materials":[
		{
			"doubleSided":true,
			"name":"Material_0.006",
			"pbrMetallicRoughness":{
				"baseColorTexture":{
					"index":0
				},
				"metallicFactor":0,
				"roughnessFactor":0.800000011920929
			}
		}
	],
	"meshes":[
		{
			"name":"Mesh_0.006",
			"primitives":[
				{
					"attributes":{
						"POSITION":0,
						"NORMAL":1,
						"TEXCOORD_0":2
					},
					"indices":3,
					"material":0
				}
			]
		}
	],
	"textures":[
		{
			"sampler":0,
			"source":0
		}
	],
	"images":[
		{
			"mimeType":"image/jpeg",
			"name":"Image_0",
			"uri":"Image_0.jpg"
		}
	],
	"accessors":[
		{
			"bufferView":0,
			"componentType":5126,
			"count":42190,
			"max":[
				0.9692180156707764,
				0.9988470077514648,
				0.731374979019165
			],
			"min":[
				-0.9813950061798096,
				-1.0022599697113037,
				-0.7439450025558472
			],
			"type":"VEC3"
		},
		{
			"bufferView":1,
			"componentType":5126,
			"count":42190,
			"type":"VEC3"
		},
		{
			"bufferView":2,
			"componentType":5126,
			"count":42190,
			"type":"VEC2"
		},
		{
			"bufferView":3,
			"componentType":5123,
			"count":149997,
			"type":"SCALAR"
		}
	],
	"bufferViews":[
		{
			"buffer":0,
			"byteLength":506280,
			"byteOffset":0,
			"target":34962
		},
		{
			"buffer":0,
			"byteLength":506280,
			"byteOffset":506280,
			"target":34962
		},
		{
			"buffer":0,
			"byteLength":337520,
			"byteOffset":1012560,
			"target":34962
		},
		{
			"buffer":0,
			"byteLength":299994,
			"byteOffset":1350080,
			"target":34963
		}
	],
	"samplers":[
		{
			"magFilter":9729,
			"minFilter":9987
		}
	],
	"buffers":[
		{
			"byteLength":1650076,
			"uri":"herb0038.bin"
		}
	]
}
