{
	"asset":{
		"generator":"Khronos glTF Blender I/O v4.2.60",
		"version":"2.0"
	},
	"scene":0,
	"scenes":[
		{
			"name":"Scene",
			"nodes":[
				0
			]
		}
	],
	"nodes":[
		{
			"mesh":0,
			"name":"Mesh_0.035"
		}
	],
	"materials":[
		{
			"doubleSided":true,
			"name":"Material_0.035",
			"pbrMetallicRoughness":{
				"baseColorTexture":{
					"index":0
				},
				"metallicFactor":0,
				"roughnessFactor":0.800000011920929
			}
		}
	],
	"meshes":[
		{
			"name":"Mesh_0.035",
			"primitives":[
				{
					"attributes":{
						"POSITION":0,
						"NORMAL":1,
						"TEXCOORD_0":2
					},
					"indices":3,
					"material":0
				}
			]
		}
	],
	"textures":[
		{
			"sampler":0,
			"source":0
		}
	],
	"images":[
		{
			"mimeType":"image/jpeg",
			"name":"Image_0",
			"uri":"Image_0.jpg"
		}
	],
	"accessors":[
		{
			"bufferView":0,
			"componentType":5126,
			"count":53327,
			"max":[
				0.9817219972610474,
				0.997655987739563,
				0.9501569867134094
			],
			"min":[
				-0.9962999820709229,
				-1.0209779739379883,
				-0.9640880227088928
			],
			"type":"VEC3"
		},
		{
			"bufferView":1,
			"componentType":5126,
			"count":53327,
			"type":"VEC3"
		},
		{
			"bufferView":2,
			"componentType":5126,
			"count":53327,
			"type":"VEC2"
		},
		{
			"bufferView":3,
			"componentType":5123,
			"count":150000,
			"type":"SCALAR"
		}
	],
	"bufferViews":[
		{
			"buffer":0,
			"byteLength":639924,
			"byteOffset":0,
			"target":34962
		},
		{
			"buffer":0,
			"byteLength":639924,
			"byteOffset":639924,
			"target":34962
		},
		{
			"buffer":0,
			"byteLength":426616,
			"byteOffset":1279848,
			"target":34962
		},
		{
			"buffer":0,
			"byteLength":300000,
			"byteOffset":1706464,
			"target":34963
		}
	],
	"samplers":[
		{
			"magFilter":9729,
			"minFilter":9987
		}
	],
	"buffers":[
		{
			"byteLength":2006464,
			"uri":"SHRUB0010.bin"
		}
	]
}
