{
	"asset":{
		"generator":"Khronos glTF Blender I/O v4.2.60",
		"version":"2.0"
	},
	"scene":0,
	"scenes":[
		{
			"name":"Scene",
			"nodes":[
				0
			]
		}
	],
	"nodes":[
		{
			"mesh":0,
			"name":"Mesh_0.049"
		}
	],
	"materials":[
		{
			"doubleSided":true,
			"name":"Material_0.049",
			"pbrMetallicRoughness":{
				"baseColorTexture":{
					"index":0
				},
				"metallicFactor":0,
				"roughnessFactor":0.800000011920929
			}
		}
	],
	"meshes":[
		{
			"name":"Mesh_0.049",
			"primitives":[
				{
					"attributes":{
						"POSITION":0,
						"NORMAL":1,
						"TEXCOORD_0":2
					},
					"indices":3,
					"material":0
				}
			]
		}
	],
	"textures":[
		{
			"sampler":0,
			"source":0
		}
	],
	"images":[
		{
			"mimeType":"image/jpeg",
			"name":"Image_0",
			"uri":"Image_0.jpg"
		}
	],
	"accessors":[
		{
			"bufferView":0,
			"componentType":5126,
			"count":31590,
			"max":[
				0.9877499938011169,
				0.9894779920578003,
				0.8902770280838013
			],
			"min":[
				-0.9910780191421509,
				-0.9895480275154114,
				-0.8948050141334534
			],
			"type":"VEC3"
		},
		{
			"bufferView":1,
			"componentType":5126,
			"count":31590,
			"type":"VEC3"
		},
		{
			"bufferView":2,
			"componentType":5126,
			"count":31590,
			"type":"VEC2"
		},
		{
			"bufferView":3,
			"componentType":5123,
			"count":148791,
			"type":"SCALAR"
		}
	],
	"bufferViews":[
		{
			"buffer":0,
			"byteLength":379080,
			"byteOffset":0,
			"target":34962
		},
		{
			"buffer":0,
			"byteLength":379080,
			"byteOffset":379080,
			"target":34962
		},
		{
			"buffer":0,
			"byteLength":252720,
			"byteOffset":758160,
			"target":34962
		},
		{
			"buffer":0,
			"byteLength":297582,
			"byteOffset":1010880,
			"target":34963
		}
	],
	"samplers":[
		{
			"magFilter":9729,
			"minFilter":9987
		}
	],
	"buffers":[
		{
			"byteLength":1308464,
			"uri":"TREE0016.bin"
		}
	]
}
