{
	"asset":{
		"generator":"Khronos glTF Blender I/O v4.2.60",
		"version":"2.0"
	},
	"scene":0,
	"scenes":[
		{
			"name":"Scene",
			"nodes":[
				0
			]
		}
	],
	"nodes":[
		{
			"mesh":0,
			"name":"Mesh_0.046"
		}
	],
	"materials":[
		{
			"doubleSided":true,
			"name":"Material_0.046",
			"pbrMetallicRoughness":{
				"baseColorTexture":{
					"index":0
				},
				"metallicFactor":0,
				"roughnessFactor":0.800000011920929
			}
		}
	],
	"meshes":[
		{
			"name":"Mesh_0.046",
			"primitives":[
				{
					"attributes":{
						"POSITION":0,
						"NORMAL":1,
						"TEXCOORD_0":2
					},
					"indices":3,
					"material":0
				}
			]
		}
	],
	"textures":[
		{
			"sampler":0,
			"source":0
		}
	],
	"images":[
		{
			"mimeType":"image/jpeg",
			"name":"Image_0",
			"uri":"Image_0.jpg"
		}
	],
	"accessors":[
		{
			"bufferView":0,
			"componentType":5126,
			"count":41978,
			"max":[
				0.9998440146446228,
				0.6038900017738342,
				0.29760199785232544
			],
			"min":[
				-1.000177025794983,
				-0.6084690093994141,
				-0.29435598850250244
			],
			"type":"VEC3"
		},
		{
			"bufferView":1,
			"componentType":5126,
			"count":41978,
			"type":"VEC3"
		},
		{
			"bufferView":2,
			"componentType":5126,
			"count":41978,
			"type":"VEC2"
		},
		{
			"bufferView":3,
			"componentType":5123,
			"count":150000,
			"type":"SCALAR"
		}
	],
	"bufferViews":[
		{
			"buffer":0,
			"byteLength":503736,
			"byteOffset":0,
			"target":34962
		},
		{
			"buffer":0,
			"byteLength":503736,
			"byteOffset":503736,
			"target":34962
		},
		{
			"buffer":0,
			"byteLength":335824,
			"byteOffset":1007472,
			"target":34962
		},
		{
			"buffer":0,
			"byteLength":300000,
			"byteOffset":1343296,
			"target":34963
		}
	],
	"samplers":[
		{
			"magFilter":9729,
			"minFilter":9987
		}
	],
	"buffers":[
		{
			"byteLength":1643296,
			"uri":"SHRUB0088.bin"
		}
	]
}
