{
	"asset":{
		"generator":"Khronos glTF Blender I/O v4.2.60",
		"version":"2.0"
	},
	"scene":0,
	"scenes":[
		{
			"name":"Scene",
			"nodes":[
				0
			]
		}
	],
	"nodes":[
		{
			"mesh":0,
			"name":"Mesh_0"
		}
	],
	"materials":[
		{
			"doubleSided":true,
			"name":"Material_0.017",
			"pbrMetallicRoughness":{
				"baseColorTexture":{
					"index":0
				},
				"metallicFactor":0,
				"roughnessFactor":0.800000011920929
			}
		}
	],
	"meshes":[
		{
			"name":"Mesh_0.017",
			"primitives":[
				{
					"attributes":{
						"POSITION":0,
						"NORMAL":1,
						"TEXCOORD_0":2
					},
					"indices":3,
					"material":0
				}
			]
		}
	],
	"textures":[
		{
			"sampler":0,
			"source":0
		}
	],
	"images":[
		{
			"mimeType":"image/jpeg",
			"name":"Image_0",
			"uri":"Image_0.jpg"
		}
	],
	"accessors":[
		{
			"bufferView":0,
			"componentType":5126,
			"count":45655,
			"max":[
				0.45601901412010193,
				0.9983819723129272,
				0.49889498949050903
			],
			"min":[
				-0.41379299759864807,
				-1.0033860206604004,
				-0.5117340087890625
			],
			"type":"VEC3"
		},
		{
			"bufferView":1,
			"componentType":5126,
			"count":45655,
			"type":"VEC3"
		},
		{
			"bufferView":2,
			"componentType":5126,
			"count":45655,
			"type":"VEC2"
		},
		{
			"bufferView":3,
			"componentType":5123,
			"count":150000,
			"type":"SCALAR"
		}
	],
	"bufferViews":[
		{
			"buffer":0,
			"byteLength":547860,
			"byteOffset":0,
			"target":34962
		},
		{
			"buffer":0,
			"byteLength":547860,
			"byteOffset":547860,
			"target":34962
		},
		{
			"buffer":0,
			"byteLength":365240,
			"byteOffset":1095720,
			"target":34962
		},
		{
			"buffer":0,
			"byteLength":300000,
			"byteOffset":1460960,
			"target":34963
		}
	],
	"samplers":[
		{
			"magFilter":9729,
			"minFilter":9987
		}
	],
	"buffers":[
		{
			"byteLength":1760960,
			"uri":"tree0025.bin"
		}
	]
}
