{
	"asset":{
		"generator":"Khronos glTF Blender I/O v4.2.60",
		"version":"2.0"
	},
	"scene":0,
	"scenes":[
		{
			"name":"Scene",
			"nodes":[
				0
			]
		}
	],
	"nodes":[
		{
			"mesh":0,
			"name":"Mesh_0"
		}
	],
	"materials":[
		{
			"doubleSided":true,
			"name":"Material_0",
			"pbrMetallicRoughness":{
				"baseColorTexture":{
					"index":0
				},
				"metallicFactor":0,
				"roughnessFactor":0.800000011920929
			}
		}
	],
	"meshes":[
		{
			"name":"Mesh_0",
			"primitives":[
				{
					"attributes":{
						"POSITION":0,
						"NORMAL":1,
						"TEXCOORD_0":2
					},
					"indices":3,
					"material":0
				}
			]
		}
	],
	"textures":[
		{
			"sampler":0,
			"source":0
		}
	],
	"images":[
		{
			"mimeType":"image/jpeg",
			"name":"Image_0",
			"uri":"Image_0.jpg"
		}
	],
	"accessors":[
		{
			"bufferView":0,
			"componentType":5126,
			"count":35364,
			"max":[
				0.8235909938812256,
				0.9944769740104675,
				0.6992030143737793
			],
			"min":[
				-0.8448899984359741,
				-0.9996179938316345,
				-0.698934018611908
			],
			"type":"VEC3"
		},
		{
			"bufferView":1,
			"componentType":5126,
			"count":35364,
			"type":"VEC3"
		},
		{
			"bufferView":2,
			"componentType":5126,
			"count":35364,
			"type":"VEC2"
		},
		{
			"bufferView":3,
			"componentType":5123,
			"count":149997,
			"type":"SCALAR"
		}
	],
	"bufferViews":[
		{
			"buffer":0,
			"byteLength":424368,
			"byteOffset":0,
			"target":34962
		},
		{
			"buffer":0,
			"byteLength":424368,
			"byteOffset":424368,
			"target":34962
		},
		{
			"buffer":0,
			"byteLength":282912,
			"byteOffset":848736,
			"target":34962
		},
		{
			"buffer":0,
			"byteLength":299994,
			"byteOffset":1131648,
			"target":34963
		}
	],
	"samplers":[
		{
			"magFilter":9729,
			"minFilter":9987
		}
	],
	"buffers":[
		{
			"byteLength":1431644,
			"uri":"climber0075.bin"
		}
	]
}
