{
	"asset":{
		"generator":"Khronos glTF Blender I/O v4.2.60",
		"version":"2.0"
	},
	"scene":0,
	"scenes":[
		{
			"name":"Scene",
			"nodes":[
				0
			]
		}
	],
	"nodes":[
		{
			"mesh":0,
			"name":"Mesh_0.057"
		}
	],
	"materials":[
		{
			"doubleSided":true,
			"name":"Material_0.057",
			"pbrMetallicRoughness":{
				"baseColorTexture":{
					"index":0
				},
				"metallicFactor":0,
				"roughnessFactor":0.800000011920929
			}
		}
	],
	"meshes":[
		{
			"name":"Mesh_0.057",
			"primitives":[
				{
					"attributes":{
						"POSITION":0,
						"NORMAL":1,
						"TEXCOORD_0":2
					},
					"indices":3,
					"material":0
				}
			]
		}
	],
	"textures":[
		{
			"sampler":0,
			"source":0
		}
	],
	"images":[
		{
			"mimeType":"image/jpeg",
			"name":"Image_0",
			"uri":"Image_0.jpg"
		}
	],
	"accessors":[
		{
			"bufferView":0,
			"componentType":5126,
			"count":30378,
			"max":[
				0.9105200171470642,
				0.9508519768714905,
				0.5557039976119995
			],
			"min":[
				-0.9042659997940063,
				-0.9661999940872192,
				-0.5561689734458923
			],
			"type":"VEC3"
		},
		{
			"bufferView":1,
			"componentType":5126,
			"count":30378,
			"type":"VEC3"
		},
		{
			"bufferView":2,
			"componentType":5126,
			"count":30378,
			"type":"VEC2"
		},
		{
			"bufferView":3,
			"componentType":5123,
			"count":149997,
			"type":"SCALAR"
		}
	],
	"bufferViews":[
		{
			"buffer":0,
			"byteLength":364536,
			"byteOffset":0,
			"target":34962
		},
		{
			"buffer":0,
			"byteLength":364536,
			"byteOffset":364536,
			"target":34962
		},
		{
			"buffer":0,
			"byteLength":243024,
			"byteOffset":729072,
			"target":34962
		},
		{
			"buffer":0,
			"byteLength":299994,
			"byteOffset":972096,
			"target":34963
		}
	],
	"samplers":[
		{
			"magFilter":9729,
			"minFilter":9987
		}
	],
	"buffers":[
		{
			"byteLength":1272092,
			"uri":"TREE0074.bin"
		}
	]
}
