{
	"asset":{
		"generator":"Khronos glTF Blender I/O v4.2.60",
		"version":"2.0"
	},
	"scene":0,
	"scenes":[
		{
			"name":"Scene",
			"nodes":[
				0
			]
		}
	],
	"nodes":[
		{
			"mesh":0,
			"name":"Mesh_0.047"
		}
	],
	"materials":[
		{
			"doubleSided":true,
			"name":"Material_0.047",
			"pbrMetallicRoughness":{
				"baseColorTexture":{
					"index":0
				},
				"metallicFactor":0,
				"roughnessFactor":0.800000011920929
			}
		}
	],
	"meshes":[
		{
			"name":"Mesh_0.047",
			"primitives":[
				{
					"attributes":{
						"POSITION":0,
						"NORMAL":1,
						"TEXCOORD_0":2
					},
					"indices":3,
					"material":0
				}
			]
		}
	],
	"textures":[
		{
			"sampler":0,
			"source":0
		}
	],
	"images":[
		{
			"mimeType":"image/jpeg",
			"name":"Image_0",
			"uri":"Image_0.jpg"
		}
	],
	"accessors":[
		{
			"bufferView":0,
			"componentType":5126,
			"count":34660,
			"max":[
				0.9270009994506836,
				0.9935129880905151,
				0.9305369853973389
			],
			"min":[
				-0.9286320209503174,
				-0.9953399896621704,
				-0.9328780174255371
			],
			"type":"VEC3"
		},
		{
			"bufferView":1,
			"componentType":5126,
			"count":34660,
			"type":"VEC3"
		},
		{
			"bufferView":2,
			"componentType":5126,
			"count":34660,
			"type":"VEC2"
		},
		{
			"bufferView":3,
			"componentType":5123,
			"count":149997,
			"type":"SCALAR"
		}
	],
	"bufferViews":[
		{
			"buffer":0,
			"byteLength":415920,
			"byteOffset":0,
			"target":34962
		},
		{
			"buffer":0,
			"byteLength":415920,
			"byteOffset":415920,
			"target":34962
		},
		{
			"buffer":0,
			"byteLength":277280,
			"byteOffset":831840,
			"target":34962
		},
		{
			"buffer":0,
			"byteLength":299994,
			"byteOffset":1109120,
			"target":34963
		}
	],
	"samplers":[
		{
			"magFilter":9729,
			"minFilter":9987
		}
	],
	"buffers":[
		{
			"byteLength":1409116,
			"uri":"SHRUB0089.bin"
		}
	]
}
