{
	"asset":{
		"generator":"Khronos glTF Blender I/O v4.2.60",
		"version":"2.0"
	},
	"scene":0,
	"scenes":[
		{
			"name":"Scene",
			"nodes":[
				0
			]
		}
	],
	"nodes":[
		{
			"mesh":0,
			"name":"Mesh_0.005"
		}
	],
	"materials":[
		{
			"doubleSided":true,
			"name":"Material_0.005",
			"pbrMetallicRoughness":{
				"baseColorTexture":{
					"index":0
				},
				"metallicFactor":0,
				"roughnessFactor":0.800000011920929
			}
		}
	],
	"meshes":[
		{
			"name":"Mesh_0.005",
			"primitives":[
				{
					"attributes":{
						"POSITION":0,
						"NORMAL":1,
						"TEXCOORD_0":2
					},
					"indices":3,
					"material":0
				}
			]
		}
	],
	"textures":[
		{
			"sampler":0,
			"source":0
		}
	],
	"images":[
		{
			"mimeType":"image/jpeg",
			"name":"Image_0",
			"uri":"Image_0.jpg"
		}
	],
	"accessors":[
		{
			"bufferView":0,
			"componentType":5126,
			"count":37583,
			"max":[
				0.9193559885025024,
				0.9986439943313599,
				0.9401490092277527
			],
			"min":[
				-0.9543840289115906,
				-0.9987549781799316,
				-0.9338639974594116
			],
			"type":"VEC3"
		},
		{
			"bufferView":1,
			"componentType":5126,
			"count":37583,
			"type":"VEC3"
		},
		{
			"bufferView":2,
			"componentType":5126,
			"count":37583,
			"type":"VEC2"
		},
		{
			"bufferView":3,
			"componentType":5123,
			"count":149997,
			"type":"SCALAR"
		}
	],
	"bufferViews":[
		{
			"buffer":0,
			"byteLength":450996,
			"byteOffset":0,
			"target":34962
		},
		{
			"buffer":0,
			"byteLength":450996,
			"byteOffset":450996,
			"target":34962
		},
		{
			"buffer":0,
			"byteLength":300664,
			"byteOffset":901992,
			"target":34962
		},
		{
			"buffer":0,
			"byteLength":299994,
			"byteOffset":1202656,
			"target":34963
		}
	],
	"samplers":[
		{
			"magFilter":9729,
			"minFilter":9987
		}
	],
	"buffers":[
		{
			"byteLength":1502652,
			"uri":"grass0014.bin"
		}
	]
}
