{
	"asset":{
		"generator":"Khronos glTF Blender I/O v4.2.60",
		"version":"2.0"
	},
	"scene":0,
	"scenes":[
		{
			"name":"Scene",
			"nodes":[
				0
			]
		}
	],
	"nodes":[
		{
			"mesh":0,
			"name":"Mesh_0"
		}
	],
	"materials":[
		{
			"doubleSided":true,
			"name":"Material_0.002",
			"pbrMetallicRoughness":{
				"baseColorTexture":{
					"index":0
				},
				"metallicFactor":0,
				"roughnessFactor":0.800000011920929
			}
		}
	],
	"meshes":[
		{
			"name":"Mesh_0.002",
			"primitives":[
				{
					"attributes":{
						"POSITION":0,
						"NORMAL":1,
						"TEXCOORD_0":2
					},
					"indices":3,
					"material":0
				}
			]
		}
	],
	"textures":[
		{
			"sampler":0,
			"source":0
		}
	],
	"images":[
		{
			"mimeType":"image/jpeg",
			"name":"Image_0",
			"uri":"Image_0.jpg"
		}
	],
	"accessors":[
		{
			"bufferView":0,
			"componentType":5126,
			"count":38577,
			"max":[
				0.9986699819564819,
				0.9814299941062927,
				0.7991319894790649
			],
			"min":[
				-0.9972180128097534,
				-0.9967010021209717,
				-0.7989109754562378
			],
			"type":"VEC3"
		},
		{
			"bufferView":1,
			"componentType":5126,
			"count":38577,
			"type":"VEC3"
		},
		{
			"bufferView":2,
			"componentType":5126,
			"count":38577,
			"type":"VEC2"
		},
		{
			"bufferView":3,
			"componentType":5123,
			"count":150000,
			"type":"SCALAR"
		}
	],
	"bufferViews":[
		{
			"buffer":0,
			"byteLength":462924,
			"byteOffset":0,
			"target":34962
		},
		{
			"buffer":0,
			"byteLength":462924,
			"byteOffset":462924,
			"target":34962
		},
		{
			"buffer":0,
			"byteLength":308616,
			"byteOffset":925848,
			"target":34962
		},
		{
			"buffer":0,
			"byteLength":300000,
			"byteOffset":1234464,
			"target":34963
		}
	],
	"samplers":[
		{
			"magFilter":9729,
			"minFilter":9987
		}
	],
	"buffers":[
		{
			"byteLength":1534464,
			"uri":"CREEPER0067.bin"
		}
	]
}
