{
	"asset":{
		"generator":"Khronos glTF Blender I/O v4.2.60",
		"version":"2.0"
	},
	"scene":0,
	"scenes":[
		{
			"name":"Scene",
			"nodes":[
				0
			]
		}
	],
	"nodes":[
		{
			"mesh":0,
			"name":"Mesh_0.013"
		}
	],
	"materials":[
		{
			"doubleSided":true,
			"name":"Material_0.013",
			"pbrMetallicRoughness":{
				"baseColorTexture":{
					"index":0
				},
				"metallicFactor":0,
				"roughnessFactor":0.800000011920929
			}
		}
	],
	"meshes":[
		{
			"name":"Mesh_0.013",
			"primitives":[
				{
					"attributes":{
						"POSITION":0,
						"NORMAL":1,
						"TEXCOORD_0":2
					},
					"indices":3,
					"material":0
				}
			]
		}
	],
	"textures":[
		{
			"sampler":0,
			"source":0
		}
	],
	"images":[
		{
			"mimeType":"image/jpeg",
			"name":"Image_0",
			"uri":"Image_0.jpg"
		}
	],
	"accessors":[
		{
			"bufferView":0,
			"componentType":5126,
			"count":46712,
			"max":[
				0.915136992931366,
				0.9949179887771606,
				0.8284299969673157
			],
			"min":[
				-0.8886330127716064,
				-1.0053249597549438,
				-0.8329439759254456
			],
			"type":"VEC3"
		},
		{
			"bufferView":1,
			"componentType":5126,
			"count":46712,
			"type":"VEC3"
		},
		{
			"bufferView":2,
			"componentType":5126,
			"count":46712,
			"type":"VEC2"
		},
		{
			"bufferView":3,
			"componentType":5123,
			"count":150000,
			"type":"SCALAR"
		}
	],
	"bufferViews":[
		{
			"buffer":0,
			"byteLength":560544,
			"byteOffset":0,
			"target":34962
		},
		{
			"buffer":0,
			"byteLength":560544,
			"byteOffset":560544,
			"target":34962
		},
		{
			"buffer":0,
			"byteLength":373696,
			"byteOffset":1121088,
			"target":34962
		},
		{
			"buffer":0,
			"byteLength":300000,
			"byteOffset":1494784,
			"target":34963
		}
	],
	"samplers":[
		{
			"magFilter":9729,
			"minFilter":9987
		}
	],
	"buffers":[
		{
			"byteLength":1794784,
			"uri":"herb0036.bin"
		}
	]
}
