{
	"asset":{
		"generator":"Khronos glTF Blender I/O v4.2.60",
		"version":"2.0"
	},
	"scene":0,
	"scenes":[
		{
			"name":"Scene",
			"nodes":[
				0
			]
		}
	],
	"nodes":[
		{
			"mesh":0,
			"name":"Mesh_0"
		}
	],
	"materials":[
		{
			"doubleSided":true,
			"name":"Material_0.025",
			"pbrMetallicRoughness":{
				"baseColorTexture":{
					"index":0
				},
				"metallicFactor":0,
				"roughnessFactor":0.800000011920929
			}
		}
	],
	"meshes":[
		{
			"name":"Mesh_0.025",
			"primitives":[
				{
					"attributes":{
						"POSITION":0,
						"NORMAL":1,
						"TEXCOORD_0":2
					},
					"indices":3,
					"material":0
				}
			]
		}
	],
	"textures":[
		{
			"sampler":0,
			"source":0
		}
	],
	"images":[
		{
			"mimeType":"image/jpeg",
			"name":"Image_0",
			"uri":"Image_0.jpg"
		}
	],
	"accessors":[
		{
			"bufferView":0,
			"componentType":5126,
			"count":42655,
			"max":[
				0.8707360029220581,
				0.995369017124176,
				0.8345479965209961
			],
			"min":[
				-0.896340012550354,
				-0.99857497215271,
				-0.8472840189933777
			],
			"type":"VEC3"
		},
		{
			"bufferView":1,
			"componentType":5126,
			"count":42655,
			"type":"VEC3"
		},
		{
			"bufferView":2,
			"componentType":5126,
			"count":42655,
			"type":"VEC2"
		},
		{
			"bufferView":3,
			"componentType":5123,
			"count":150000,
			"type":"SCALAR"
		}
	],
	"bufferViews":[
		{
			"buffer":0,
			"byteLength":511860,
			"byteOffset":0,
			"target":34962
		},
		{
			"buffer":0,
			"byteLength":511860,
			"byteOffset":511860,
			"target":34962
		},
		{
			"buffer":0,
			"byteLength":341240,
			"byteOffset":1023720,
			"target":34962
		},
		{
			"buffer":0,
			"byteLength":300000,
			"byteOffset":1364960,
			"target":34963
		}
	],
	"samplers":[
		{
			"magFilter":9729,
			"minFilter":9987
		}
	],
	"buffers":[
		{
			"byteLength":1664960,
			"uri":"herb0058.bin"
		}
	]
}
