{
	"asset":{
		"generator":"Khronos glTF Blender I/O v4.2.60",
		"version":"2.0"
	},
	"scene":0,
	"scenes":[
		{
			"name":"Scene",
			"nodes":[
				0
			]
		}
	],
	"nodes":[
		{
			"mesh":0,
			"name":"Mesh_0.039"
		}
	],
	"materials":[
		{
			"doubleSided":true,
			"name":"Material_0.039",
			"pbrMetallicRoughness":{
				"baseColorTexture":{
					"index":0
				},
				"metallicFactor":0,
				"roughnessFactor":0.800000011920929
			}
		}
	],
	"meshes":[
		{
			"name":"Mesh_0.039",
			"primitives":[
				{
					"attributes":{
						"POSITION":0,
						"NORMAL":1,
						"TEXCOORD_0":2
					},
					"indices":3,
					"material":0
				}
			]
		}
	],
	"textures":[
		{
			"sampler":0,
			"source":0
		}
	],
	"images":[
		{
			"mimeType":"image/jpeg",
			"name":"Image_0",
			"uri":"Image_0.jpg"
		}
	],
	"accessors":[
		{
			"bufferView":0,
			"componentType":5126,
			"count":34540,
			"max":[
				0.985427975654602,
				0.9923660159111023,
				0.9796140193939209
			],
			"min":[
				-0.9842470288276672,
				-0.995123028755188,
				-0.9704520106315613
			],
			"type":"VEC3"
		},
		{
			"bufferView":1,
			"componentType":5126,
			"count":34540,
			"type":"VEC3"
		},
		{
			"bufferView":2,
			"componentType":5126,
			"count":34540,
			"type":"VEC2"
		},
		{
			"bufferView":3,
			"componentType":5123,
			"count":149997,
			"type":"SCALAR"
		}
	],
	"bufferViews":[
		{
			"buffer":0,
			"byteLength":414480,
			"byteOffset":0,
			"target":34962
		},
		{
			"buffer":0,
			"byteLength":414480,
			"byteOffset":414480,
			"target":34962
		},
		{
			"buffer":0,
			"byteLength":276320,
			"byteOffset":828960,
			"target":34962
		},
		{
			"buffer":0,
			"byteLength":299994,
			"byteOffset":1105280,
			"target":34963
		}
	],
	"samplers":[
		{
			"magFilter":9729,
			"minFilter":9987
		}
	],
	"buffers":[
		{
			"byteLength":1405276,
			"uri":"SHRUB0032.bin"
		}
	]
}
