{
	"asset":{
		"generator":"Khronos glTF Blender I/O v4.2.60",
		"version":"2.0"
	},
	"scene":0,
	"scenes":[
		{
			"name":"Scene",
			"nodes":[
				0
			]
		}
	],
	"nodes":[
		{
			"mesh":0,
			"name":"Mesh_0"
		}
	],
	"materials":[
		{
			"doubleSided":true,
			"name":"Material_0.008",
			"pbrMetallicRoughness":{
				"baseColorTexture":{
					"index":0
				},
				"metallicFactor":0,
				"roughnessFactor":0.800000011920929
			}
		}
	],
	"meshes":[
		{
			"name":"Mesh_0.008",
			"primitives":[
				{
					"attributes":{
						"POSITION":0,
						"NORMAL":1,
						"TEXCOORD_0":2
					},
					"indices":3,
					"material":0
				}
			]
		}
	],
	"textures":[
		{
			"sampler":0,
			"source":0
		}
	],
	"images":[
		{
			"mimeType":"image/jpeg",
			"name":"Image_0",
			"uri":"Image_0.jpg"
		}
	],
	"accessors":[
		{
			"bufferView":0,
			"componentType":5126,
			"count":34407,
			"max":[
				0.9970449805259705,
				0.9812290072441101,
				0.6111599802970886
			],
			"min":[
				-1.0019299983978271,
				-0.9911159873008728,
				-0.6325370073318481
			],
			"type":"VEC3"
		},
		{
			"bufferView":1,
			"componentType":5126,
			"count":34407,
			"type":"VEC3"
		},
		{
			"bufferView":2,
			"componentType":5126,
			"count":34407,
			"type":"VEC2"
		},
		{
			"bufferView":3,
			"componentType":5123,
			"count":149997,
			"type":"SCALAR"
		}
	],
	"bufferViews":[
		{
			"buffer":0,
			"byteLength":412884,
			"byteOffset":0,
			"target":34962
		},
		{
			"buffer":0,
			"byteLength":412884,
			"byteOffset":412884,
			"target":34962
		},
		{
			"buffer":0,
			"byteLength":275256,
			"byteOffset":825768,
			"target":34962
		},
		{
			"buffer":0,
			"byteLength":299994,
			"byteOffset":1101024,
			"target":34963
		}
	],
	"samplers":[
		{
			"magFilter":9729,
			"minFilter":9987
		}
	],
	"buffers":[
		{
			"byteLength":1401020,
			"uri":"herb0055.bin"
		}
	]
}
