{
	"asset":{
		"generator":"Khronos glTF Blender I/O v4.2.60",
		"version":"2.0"
	},
	"scene":0,
	"scenes":[
		{
			"name":"Scene",
			"nodes":[
				0
			]
		}
	],
	"nodes":[
		{
			"mesh":0,
			"name":"Mesh_0.042"
		}
	],
	"materials":[
		{
			"doubleSided":true,
			"name":"Material_0.042",
			"pbrMetallicRoughness":{
				"baseColorTexture":{
					"index":0
				},
				"metallicFactor":0,
				"roughnessFactor":0.800000011920929
			}
		}
	],
	"meshes":[
		{
			"name":"Mesh_0.042",
			"primitives":[
				{
					"attributes":{
						"POSITION":0,
						"NORMAL":1,
						"TEXCOORD_0":2
					},
					"indices":3,
					"material":0
				}
			]
		}
	],
	"textures":[
		{
			"sampler":0,
			"source":0
		}
	],
	"images":[
		{
			"mimeType":"image/jpeg",
			"name":"Image_0",
			"uri":"Image_0.jpg"
		}
	],
	"accessors":[
		{
			"bufferView":0,
			"componentType":5126,
			"count":46132,
			"max":[
				0.9289370179176331,
				0.9949600100517273,
				0.9246320128440857
			],
			"min":[
				-0.926472008228302,
				-0.9989609718322754,
				-0.9352819919586182
			],
			"type":"VEC3"
		},
		{
			"bufferView":1,
			"componentType":5126,
			"count":46132,
			"type":"VEC3"
		},
		{
			"bufferView":2,
			"componentType":5126,
			"count":46132,
			"type":"VEC2"
		},
		{
			"bufferView":3,
			"componentType":5123,
			"count":150000,
			"type":"SCALAR"
		}
	],
	"bufferViews":[
		{
			"buffer":0,
			"byteLength":553584,
			"byteOffset":0,
			"target":34962
		},
		{
			"buffer":0,
			"byteLength":553584,
			"byteOffset":553584,
			"target":34962
		},
		{
			"buffer":0,
			"byteLength":369056,
			"byteOffset":1107168,
			"target":34962
		},
		{
			"buffer":0,
			"byteLength":300000,
			"byteOffset":1476224,
			"target":34963
		}
	],
	"samplers":[
		{
			"magFilter":9729,
			"minFilter":9987
		}
	],
	"buffers":[
		{
			"byteLength":1776224,
			"uri":"SHRUB0068.bin"
		}
	]
}
