{
	"asset":{
		"generator":"Khronos glTF Blender I/O v4.2.60",
		"version":"2.0"
	},
	"scene":0,
	"scenes":[
		{
			"name":"Scene",
			"nodes":[
				0
			]
		}
	],
	"nodes":[
		{
			"mesh":0,
			"name":"Mesh_0.012"
		}
	],
	"materials":[
		{
			"doubleSided":true,
			"name":"Material_0.012",
			"pbrMetallicRoughness":{
				"baseColorTexture":{
					"index":0
				},
				"metallicFactor":0,
				"roughnessFactor":0.800000011920929
			}
		}
	],
	"meshes":[
		{
			"name":"Mesh_0.012",
			"primitives":[
				{
					"attributes":{
						"POSITION":0,
						"NORMAL":1,
						"TEXCOORD_0":2
					},
					"indices":3,
					"material":0
				}
			]
		}
	],
	"textures":[
		{
			"sampler":0,
			"source":0
		}
	],
	"images":[
		{
			"mimeType":"image/jpeg",
			"name":"Image_0",
			"uri":"Image_0.jpg"
		}
	],
	"accessors":[
		{
			"bufferView":0,
			"componentType":5126,
			"count":43426,
			"max":[
				0.439505010843277,
				1.002210021018982,
				0.4507249891757965
			],
			"min":[
				-0.4415139853954315,
				-1.000784993171692,
				-0.4508010149002075
			],
			"type":"VEC3"
		},
		{
			"bufferView":1,
			"componentType":5126,
			"count":43426,
			"type":"VEC3"
		},
		{
			"bufferView":2,
			"componentType":5126,
			"count":43426,
			"type":"VEC2"
		},
		{
			"bufferView":3,
			"componentType":5123,
			"count":149997,
			"type":"SCALAR"
		}
	],
	"bufferViews":[
		{
			"buffer":0,
			"byteLength":521112,
			"byteOffset":0,
			"target":34962
		},
		{
			"buffer":0,
			"byteLength":521112,
			"byteOffset":521112,
			"target":34962
		},
		{
			"buffer":0,
			"byteLength":347408,
			"byteOffset":1042224,
			"target":34962
		},
		{
			"buffer":0,
			"byteLength":299994,
			"byteOffset":1389632,
			"target":34963
		}
	],
	"samplers":[
		{
			"magFilter":9729,
			"minFilter":9987
		}
	],
	"buffers":[
		{
			"byteLength":1689628,
			"uri":"herb0015.bin"
		}
	]
}
