{
	"asset":{
		"generator":"Khronos glTF Blender I/O v4.2.60",
		"version":"2.0"
	},
	"scene":0,
	"scenes":[
		{
			"name":"Scene",
			"nodes":[
				0
			]
		}
	],
	"nodes":[
		{
			"mesh":0,
			"name":"Mesh_0.031"
		}
	],
	"materials":[
		{
			"doubleSided":true,
			"name":"Material_0.031",
			"pbrMetallicRoughness":{
				"baseColorTexture":{
					"index":0
				},
				"metallicFactor":0,
				"roughnessFactor":0.800000011920929
			}
		}
	],
	"meshes":[
		{
			"name":"Mesh_0.031",
			"primitives":[
				{
					"attributes":{
						"POSITION":0,
						"NORMAL":1,
						"TEXCOORD_0":2
					},
					"indices":3,
					"material":0
				}
			]
		}
	],
	"textures":[
		{
			"sampler":0,
			"source":0
		}
	],
	"images":[
		{
			"mimeType":"image/jpeg",
			"name":"Image_0",
			"uri":"Image_0.jpg"
		}
	],
	"accessors":[
		{
			"bufferView":0,
			"componentType":5126,
			"count":28995,
			"max":[
				0.5793989896774292,
				0.984000027179718,
				0.9653350114822388
			],
			"min":[
				-0.5596749782562256,
				-1.0003390312194824,
				-0.9714149832725525
			],
			"type":"VEC3"
		},
		{
			"bufferView":1,
			"componentType":5126,
			"count":28995,
			"type":"VEC3"
		},
		{
			"bufferView":2,
			"componentType":5126,
			"count":28995,
			"type":"VEC2"
		},
		{
			"bufferView":3,
			"componentType":5123,
			"count":149997,
			"type":"SCALAR"
		}
	],
	"bufferViews":[
		{
			"buffer":0,
			"byteLength":347940,
			"byteOffset":0,
			"target":34962
		},
		{
			"buffer":0,
			"byteLength":347940,
			"byteOffset":347940,
			"target":34962
		},
		{
			"buffer":0,
			"byteLength":231960,
			"byteOffset":695880,
			"target":34962
		},
		{
			"buffer":0,
			"byteLength":299994,
			"byteOffset":927840,
			"target":34963
		}
	],
	"samplers":[
		{
			"magFilter":9729,
			"minFilter":9987
		}
	],
	"buffers":[
		{
			"byteLength":1227836,
			"uri":"SHRUB0005..bin"
		}
	]
}
