{
	"asset":{
		"generator":"Khronos glTF Blender I/O v4.2.60",
		"version":"2.0"
	},
	"scene":0,
	"scenes":[
		{
			"name":"Scene",
			"nodes":[
				0
			]
		}
	],
	"nodes":[
		{
			"mesh":0,
			"name":"Mesh_0.060"
		}
	],
	"materials":[
		{
			"doubleSided":true,
			"name":"Material_0.060",
			"pbrMetallicRoughness":{
				"baseColorTexture":{
					"index":0
				},
				"metallicFactor":0,
				"roughnessFactor":0.800000011920929
			}
		}
	],
	"meshes":[
		{
			"name":"Mesh_0.060",
			"primitives":[
				{
					"attributes":{
						"POSITION":0,
						"NORMAL":1,
						"TEXCOORD_0":2
					},
					"indices":3,
					"material":0
				}
			]
		}
	],
	"textures":[
		{
			"sampler":0,
			"source":0
		}
	],
	"images":[
		{
			"mimeType":"image/jpeg",
			"name":"Image_0",
			"uri":"Image_0.jpg"
		}
	],
	"accessors":[
		{
			"bufferView":0,
			"componentType":5126,
			"count":35921,
			"max":[
				0.9928950071334839,
				0.880046010017395,
				0.9515810012817383
			],
			"min":[
				-1.0020849704742432,
				-0.6867960095405579,
				-0.9579039812088013
			],
			"type":"VEC3"
		},
		{
			"bufferView":1,
			"componentType":5126,
			"count":35921,
			"type":"VEC3"
		},
		{
			"bufferView":2,
			"componentType":5126,
			"count":35921,
			"type":"VEC2"
		},
		{
			"bufferView":3,
			"componentType":5123,
			"count":150000,
			"type":"SCALAR"
		}
	],
	"bufferViews":[
		{
			"buffer":0,
			"byteLength":431052,
			"byteOffset":0,
			"target":34962
		},
		{
			"buffer":0,
			"byteLength":431052,
			"byteOffset":431052,
			"target":34962
		},
		{
			"buffer":0,
			"byteLength":287368,
			"byteOffset":862104,
			"target":34962
		},
		{
			"buffer":0,
			"byteLength":300000,
			"byteOffset":1149472,
			"target":34963
		}
	],
	"samplers":[
		{
			"magFilter":9729,
			"minFilter":9987
		}
	],
	"buffers":[
		{
			"byteLength":1449472,
			"uri":"TREE0084.bin"
		}
	]
}
