{
	"asset":{
		"generator":"Khronos glTF Blender I/O v4.2.60",
		"version":"2.0"
	},
	"scene":0,
	"scenes":[
		{
			"name":"Scene",
			"nodes":[
				0
			]
		}
	],
	"nodes":[
		{
			"mesh":0,
			"name":"Mesh_0"
		}
	],
	"materials":[
		{
			"doubleSided":true,
			"name":"Material_0",
			"pbrMetallicRoughness":{
				"baseColorTexture":{
					"index":0
				},
				"metallicFactor":0,
				"roughnessFactor":0.800000011920929
			}
		}
	],
	"meshes":[
		{
			"name":"Mesh_0",
			"primitives":[
				{
					"attributes":{
						"POSITION":0,
						"NORMAL":1,
						"TEXCOORD_0":2
					},
					"indices":3,
					"material":0
				}
			]
		}
	],
	"textures":[
		{
			"sampler":0,
			"source":0
		}
	],
	"images":[
		{
			"mimeType":"image/jpeg",
			"name":"Image_0",
			"uri":"Image_0.jpg"
		}
	],
	"accessors":[
		{
			"bufferView":0,
			"componentType":5126,
			"count":32889,
			"max":[
				0.9502720236778259,
				0.5518180131912231,
				0.9977419972419739
			],
			"min":[
				-0.9565550088882446,
				-0.5601599812507629,
				-0.9994609951972961
			],
			"type":"VEC3"
		},
		{
			"bufferView":1,
			"componentType":5126,
			"count":32889,
			"type":"VEC3"
		},
		{
			"bufferView":2,
			"componentType":5126,
			"count":32889,
			"type":"VEC2"
		},
		{
			"bufferView":3,
			"componentType":5123,
			"count":149997,
			"type":"SCALAR"
		}
	],
	"bufferViews":[
		{
			"buffer":0,
			"byteLength":394668,
			"byteOffset":0,
			"target":34962
		},
		{
			"buffer":0,
			"byteLength":394668,
			"byteOffset":394668,
			"target":34962
		},
		{
			"buffer":0,
			"byteLength":263112,
			"byteOffset":789336,
			"target":34962
		},
		{
			"buffer":0,
			"byteLength":299994,
			"byteOffset":1052448,
			"target":34963
		}
	],
	"samplers":[
		{
			"magFilter":9729,
			"minFilter":9987
		}
	],
	"buffers":[
		{
			"byteLength":1352444,
			"uri":"climber0020.bin"
		}
	]
}
