{
	"asset":{
		"generator":"Khronos glTF Blender I/O v4.2.60",
		"version":"2.0"
	},
	"scene":0,
	"scenes":[
		{
			"name":"Scene",
			"nodes":[
				0
			]
		}
	],
	"nodes":[
		{
			"mesh":0,
			"name":"Mesh_0"
		}
	],
	"materials":[
		{
			"doubleSided":true,
			"name":"Material_0.014",
			"pbrMetallicRoughness":{
				"baseColorTexture":{
					"index":0
				},
				"metallicFactor":0,
				"roughnessFactor":0.800000011920929
			}
		}
	],
	"meshes":[
		{
			"name":"Mesh_0.014",
			"primitives":[
				{
					"attributes":{
						"POSITION":0,
						"NORMAL":1,
						"TEXCOORD_0":2
					},
					"indices":3,
					"material":0
				}
			]
		}
	],
	"textures":[
		{
			"sampler":0,
			"source":0
		}
	],
	"images":[
		{
			"mimeType":"image/jpeg",
			"name":"Image_0",
			"uri":"Image_0.jpg"
		}
	],
	"accessors":[
		{
			"bufferView":0,
			"componentType":5126,
			"count":39330,
			"max":[
				0.6720150113105774,
				0.9999610185623169,
				0.6858689785003662
			],
			"min":[
				-0.667149007320404,
				-1.0023729801177979,
				-0.6903790235519409
			],
			"type":"VEC3"
		},
		{
			"bufferView":1,
			"componentType":5126,
			"count":39330,
			"type":"VEC3"
		},
		{
			"bufferView":2,
			"componentType":5126,
			"count":39330,
			"type":"VEC2"
		},
		{
			"bufferView":3,
			"componentType":5123,
			"count":150000,
			"type":"SCALAR"
		}
	],
	"bufferViews":[
		{
			"buffer":0,
			"byteLength":471960,
			"byteOffset":0,
			"target":34962
		},
		{
			"buffer":0,
			"byteLength":471960,
			"byteOffset":471960,
			"target":34962
		},
		{
			"buffer":0,
			"byteLength":314640,
			"byteOffset":943920,
			"target":34962
		},
		{
			"buffer":0,
			"byteLength":300000,
			"byteOffset":1258560,
			"target":34963
		}
	],
	"samplers":[
		{
			"magFilter":9729,
			"minFilter":9987
		}
	],
	"buffers":[
		{
			"byteLength":1558560,
			"uri":"shrub0031.bin"
		}
	]
}
