{
	"asset":{
		"generator":"Khronos glTF Blender I/O v4.2.60",
		"version":"2.0"
	},
	"scene":0,
	"scenes":[
		{
			"name":"Scene",
			"nodes":[
				0
			]
		}
	],
	"nodes":[
		{
			"mesh":0,
			"name":"Mesh_0.019"
		}
	],
	"materials":[
		{
			"doubleSided":true,
			"name":"Material_0.019",
			"pbrMetallicRoughness":{
				"baseColorTexture":{
					"index":0
				},
				"metallicFactor":0,
				"roughnessFactor":0.800000011920929
			}
		}
	],
	"meshes":[
		{
			"name":"Mesh_0.019",
			"primitives":[
				{
					"attributes":{
						"POSITION":0,
						"NORMAL":1,
						"TEXCOORD_0":2
					},
					"indices":3,
					"material":0
				}
			]
		}
	],
	"textures":[
		{
			"sampler":0,
			"source":0
		}
	],
	"images":[
		{
			"mimeType":"image/jpeg",
			"name":"Image_0",
			"uri":"Image_0.jpg"
		}
	],
	"accessors":[
		{
			"bufferView":0,
			"componentType":5126,
			"count":37974,
			"max":[
				0.8010050058364868,
				0.996537983417511,
				0.6661139726638794
			],
			"min":[
				-0.7939680218696594,
				-1.0026119947433472,
				-0.606207013130188
			],
			"type":"VEC3"
		},
		{
			"bufferView":1,
			"componentType":5126,
			"count":37974,
			"type":"VEC3"
		},
		{
			"bufferView":2,
			"componentType":5126,
			"count":37974,
			"type":"VEC2"
		},
		{
			"bufferView":3,
			"componentType":5123,
			"count":149997,
			"type":"SCALAR"
		}
	],
	"bufferViews":[
		{
			"buffer":0,
			"byteLength":455688,
			"byteOffset":0,
			"target":34962
		},
		{
			"buffer":0,
			"byteLength":455688,
			"byteOffset":455688,
			"target":34962
		},
		{
			"buffer":0,
			"byteLength":303792,
			"byteOffset":911376,
			"target":34962
		},
		{
			"buffer":0,
			"byteLength":299994,
			"byteOffset":1215168,
			"target":34963
		}
	],
	"samplers":[
		{
			"magFilter":9729,
			"minFilter":9987
		}
	],
	"buffers":[
		{
			"byteLength":1515164,
			"uri":"HERB0052.bin"
		}
	]
}
