{
	"asset":{
		"generator":"Khronos glTF Blender I/O v4.2.60",
		"version":"2.0"
	},
	"scene":0,
	"scenes":[
		{
			"name":"Scene",
			"nodes":[
				0
			]
		}
	],
	"nodes":[
		{
			"mesh":0,
			"name":"Mesh_0.058"
		}
	],
	"materials":[
		{
			"doubleSided":true,
			"name":"Material_0.058",
			"pbrMetallicRoughness":{
				"baseColorTexture":{
					"index":0
				},
				"metallicFactor":0,
				"roughnessFactor":0.800000011920929
			}
		}
	],
	"meshes":[
		{
			"name":"Mesh_0.058",
			"primitives":[
				{
					"attributes":{
						"POSITION":0,
						"NORMAL":1,
						"TEXCOORD_0":2
					},
					"indices":3,
					"material":0
				}
			]
		}
	],
	"textures":[
		{
			"sampler":0,
			"source":0
		}
	],
	"images":[
		{
			"mimeType":"image/jpeg",
			"name":"Image_0",
			"uri":"Image_0.jpg"
		}
	],
	"accessors":[
		{
			"bufferView":0,
			"componentType":5126,
			"count":27497,
			"max":[
				0.9973260164260864,
				1.0054700374603271,
				0.9793090224266052
			],
			"min":[
				-1.0020519495010376,
				-1.0015939474105835,
				-0.9832689762115479
			],
			"type":"VEC3"
		},
		{
			"bufferView":1,
			"componentType":5126,
			"count":27497,
			"type":"VEC3"
		},
		{
			"bufferView":2,
			"componentType":5126,
			"count":27497,
			"type":"VEC2"
		},
		{
			"bufferView":3,
			"componentType":5123,
			"count":150000,
			"type":"SCALAR"
		}
	],
	"bufferViews":[
		{
			"buffer":0,
			"byteLength":329964,
			"byteOffset":0,
			"target":34962
		},
		{
			"buffer":0,
			"byteLength":329964,
			"byteOffset":329964,
			"target":34962
		},
		{
			"buffer":0,
			"byteLength":219976,
			"byteOffset":659928,
			"target":34962
		},
		{
			"buffer":0,
			"byteLength":300000,
			"byteOffset":879904,
			"target":34963
		}
	],
	"samplers":[
		{
			"magFilter":9729,
			"minFilter":9987
		}
	],
	"buffers":[
		{
			"byteLength":1179904,
			"uri":"TREE0078.bin"
		}
	]
}
