{
	"asset":{
		"generator":"Khronos glTF Blender I/O v4.2.60",
		"version":"2.0"
	},
	"scene":0,
	"scenes":[
		{
			"name":"Scene",
			"nodes":[
				0
			]
		}
	],
	"nodes":[
		{
			"mesh":0,
			"name":"Mesh_0"
		}
	],
	"materials":[
		{
			"doubleSided":true,
			"name":"Material_0.020",
			"pbrMetallicRoughness":{
				"baseColorTexture":{
					"index":0
				},
				"metallicFactor":0,
				"roughnessFactor":0.800000011920929
			}
		}
	],
	"meshes":[
		{
			"name":"Mesh_0.020",
			"primitives":[
				{
					"attributes":{
						"POSITION":0,
						"NORMAL":1,
						"TEXCOORD_0":2
					},
					"indices":3,
					"material":0
				}
			]
		}
	],
	"textures":[
		{
			"sampler":0,
			"source":0
		}
	],
	"images":[
		{
			"mimeType":"image/jpeg",
			"name":"Image_0",
			"uri":"Image_0.jpg"
		}
	],
	"accessors":[
		{
			"bufferView":0,
			"componentType":5126,
			"count":33299,
			"max":[
				0.9980760216712952,
				0.934831976890564,
				0.8939279913902283
			],
			"min":[
				-0.9991940259933472,
				-0.9495139718055725,
				-0.9082790017127991
			],
			"type":"VEC3"
		},
		{
			"bufferView":1,
			"componentType":5126,
			"count":33299,
			"type":"VEC3"
		},
		{
			"bufferView":2,
			"componentType":5126,
			"count":33299,
			"type":"VEC2"
		},
		{
			"bufferView":3,
			"componentType":5123,
			"count":149997,
			"type":"SCALAR"
		}
	],
	"bufferViews":[
		{
			"buffer":0,
			"byteLength":399588,
			"byteOffset":0,
			"target":34962
		},
		{
			"buffer":0,
			"byteLength":399588,
			"byteOffset":399588,
			"target":34962
		},
		{
			"buffer":0,
			"byteLength":266392,
			"byteOffset":799176,
			"target":34962
		},
		{
			"buffer":0,
			"byteLength":299994,
			"byteOffset":1065568,
			"target":34963
		}
	],
	"samplers":[
		{
			"magFilter":9729,
			"minFilter":9987
		}
	],
	"buffers":[
		{
			"byteLength":1365564,
			"uri":"tree0061.bin"
		}
	]
}
