{
	"asset":{
		"generator":"Khronos glTF Blender I/O v4.2.60",
		"version":"2.0"
	},
	"scene":0,
	"scenes":[
		{
			"name":"Scene",
			"nodes":[
				0
			]
		}
	],
	"nodes":[
		{
			"mesh":0,
			"name":"Mesh_0"
		}
	],
	"materials":[
		{
			"doubleSided":true,
			"name":"Material_0.016",
			"pbrMetallicRoughness":{
				"baseColorTexture":{
					"index":0
				},
				"metallicFactor":0,
				"roughnessFactor":0.800000011920929
			}
		}
	],
	"meshes":[
		{
			"name":"Mesh_0.016",
			"primitives":[
				{
					"attributes":{
						"POSITION":0,
						"NORMAL":1,
						"TEXCOORD_0":2
					},
					"indices":3,
					"material":0
				}
			]
		}
	],
	"textures":[
		{
			"sampler":0,
			"source":0
		}
	],
	"images":[
		{
			"mimeType":"image/jpeg",
			"name":"Image_0",
			"uri":"Image_0.jpg"
		}
	],
	"accessors":[
		{
			"bufferView":0,
			"componentType":5126,
			"count":49302,
			"max":[
				0.807449996471405,
				0.9998930096626282,
				0.9340530037879944
			],
			"min":[
				-0.8082900047302246,
				-1.0028350353240967,
				-0.9478660225868225
			],
			"type":"VEC3"
		},
		{
			"bufferView":1,
			"componentType":5126,
			"count":49302,
			"type":"VEC3"
		},
		{
			"bufferView":2,
			"componentType":5126,
			"count":49302,
			"type":"VEC2"
		},
		{
			"bufferView":3,
			"componentType":5123,
			"count":150000,
			"type":"SCALAR"
		}
	],
	"bufferViews":[
		{
			"buffer":0,
			"byteLength":591624,
			"byteOffset":0,
			"target":34962
		},
		{
			"buffer":0,
			"byteLength":591624,
			"byteOffset":591624,
			"target":34962
		},
		{
			"buffer":0,
			"byteLength":394416,
			"byteOffset":1183248,
			"target":34962
		},
		{
			"buffer":0,
			"byteLength":300000,
			"byteOffset":1577664,
			"target":34963
		}
	],
	"samplers":[
		{
			"magFilter":9729,
			"minFilter":9987
		}
	],
	"buffers":[
		{
			"byteLength":1877664,
			"uri":"tree0024.bin"
		}
	]
}
