{
	"asset":{
		"generator":"Khronos glTF Blender I/O v4.2.60",
		"version":"2.0"
	},
	"scene":0,
	"scenes":[
		{
			"name":"Scene",
			"nodes":[
				0
			]
		}
	],
	"nodes":[
		{
			"mesh":0,
			"name":"Mesh_0.004"
		}
	],
	"materials":[
		{
			"doubleSided":true,
			"name":"Material_0.004",
			"pbrMetallicRoughness":{
				"baseColorTexture":{
					"index":0
				},
				"metallicFactor":0,
				"roughnessFactor":0.800000011920929
			}
		}
	],
	"meshes":[
		{
			"name":"Mesh_0.004",
			"primitives":[
				{
					"attributes":{
						"POSITION":0,
						"NORMAL":1,
						"TEXCOORD_0":2
					},
					"indices":3,
					"material":0
				}
			]
		}
	],
	"textures":[
		{
			"sampler":0,
			"source":0
		}
	],
	"images":[
		{
			"mimeType":"image/jpeg",
			"name":"Image_0",
			"uri":"Image_0.jpg"
		}
	],
	"accessors":[
		{
			"bufferView":0,
			"componentType":5126,
			"count":61443,
			"max":[
				0.984495997428894,
				0.5242919921875,
				0.9994660019874573
			],
			"min":[
				-1.0006400346755981,
				-0.5447999835014343,
				-0.9973459839820862
			],
			"type":"VEC3"
		},
		{
			"bufferView":1,
			"componentType":5126,
			"count":61443,
			"type":"VEC3"
		},
		{
			"bufferView":2,
			"componentType":5126,
			"count":61443,
			"type":"VEC2"
		},
		{
			"bufferView":3,
			"componentType":5123,
			"count":149997,
			"type":"SCALAR"
		}
	],
	"bufferViews":[
		{
			"buffer":0,
			"byteLength":737316,
			"byteOffset":0,
			"target":34962
		},
		{
			"buffer":0,
			"byteLength":737316,
			"byteOffset":737316,
			"target":34962
		},
		{
			"buffer":0,
			"byteLength":491544,
			"byteOffset":1474632,
			"target":34962
		},
		{
			"buffer":0,
			"byteLength":299994,
			"byteOffset":1966176,
			"target":34963
		}
	],
	"samplers":[
		{
			"magFilter":9729,
			"minFilter":9987
		}
	],
	"buffers":[
		{
			"byteLength":2266172,
			"uri":"climber0034.bin"
		}
	]
}
