{
	"asset":{
		"generator":"Khronos glTF Blender I/O v4.2.60",
		"version":"2.0"
	},
	"scene":0,
	"scenes":[
		{
			"name":"Scene",
			"nodes":[
				0
			]
		}
	],
	"nodes":[
		{
			"mesh":0,
			"name":"Mesh_0.065"
		}
	],
	"materials":[
		{
			"doubleSided":true,
			"name":"Material_0.065",
			"pbrMetallicRoughness":{
				"baseColorTexture":{
					"index":0
				},
				"metallicFactor":0,
				"roughnessFactor":0.800000011920929
			}
		}
	],
	"meshes":[
		{
			"name":"Mesh_0.065",
			"primitives":[
				{
					"attributes":{
						"POSITION":0,
						"NORMAL":1,
						"TEXCOORD_0":2
					},
					"indices":3,
					"material":0
				}
			]
		}
	],
	"textures":[
		{
			"sampler":0,
			"source":0
		}
	],
	"images":[
		{
			"mimeType":"image/jpeg",
			"name":"Image_0",
			"uri":"Image_0.jpg"
		}
	],
	"accessors":[
		{
			"bufferView":0,
			"componentType":5126,
			"count":36541,
			"max":[
				0.9967470169067383,
				0.9058200120925903,
				0.9816650152206421
			],
			"min":[
				-0.9981120228767395,
				-0.9108409881591797,
				-0.9782000184059143
			],
			"type":"VEC3"
		},
		{
			"bufferView":1,
			"componentType":5126,
			"count":36541,
			"type":"VEC3"
		},
		{
			"bufferView":2,
			"componentType":5126,
			"count":36541,
			"type":"VEC2"
		},
		{
			"bufferView":3,
			"componentType":5123,
			"count":149997,
			"type":"SCALAR"
		}
	],
	"bufferViews":[
		{
			"buffer":0,
			"byteLength":438492,
			"byteOffset":0,
			"target":34962
		},
		{
			"buffer":0,
			"byteLength":438492,
			"byteOffset":438492,
			"target":34962
		},
		{
			"buffer":0,
			"byteLength":292328,
			"byteOffset":876984,
			"target":34962
		},
		{
			"buffer":0,
			"byteLength":299994,
			"byteOffset":1169312,
			"target":34963
		}
	],
	"samplers":[
		{
			"magFilter":9729,
			"minFilter":9987
		}
	],
	"buffers":[
		{
			"byteLength":1469308,
			"uri":"TREE0091.bin"
		}
	]
}
