{
	"asset":{
		"generator":"Khronos glTF Blender I/O v4.2.60",
		"version":"2.0"
	},
	"scene":0,
	"scenes":[
		{
			"name":"Scene",
			"nodes":[
				0
			]
		}
	],
	"nodes":[
		{
			"mesh":0,
			"name":"Mesh_0.003"
		}
	],
	"materials":[
		{
			"doubleSided":true,
			"name":"Material_0.003",
			"pbrMetallicRoughness":{
				"baseColorTexture":{
					"index":0
				},
				"metallicFactor":0,
				"roughnessFactor":0.800000011920929
			}
		}
	],
	"meshes":[
		{
			"name":"Mesh_0.003",
			"primitives":[
				{
					"attributes":{
						"POSITION":0,
						"NORMAL":1,
						"TEXCOORD_0":2
					},
					"indices":3,
					"material":0
				}
			]
		}
	],
	"textures":[
		{
			"sampler":0,
			"source":0
		}
	],
	"images":[
		{
			"mimeType":"image/jpeg",
			"name":"Image_0",
			"uri":"Image_0.jpg"
		}
	],
	"accessors":[
		{
			"bufferView":0,
			"componentType":5126,
			"count":39998,
			"max":[
				0.8800910115242004,
				0.9988099932670593,
				0.9639509916305542
			],
			"min":[
				-0.8212019801139832,
				-1.005308985710144,
				-0.9628390073776245
			],
			"type":"VEC3"
		},
		{
			"bufferView":1,
			"componentType":5126,
			"count":39998,
			"type":"VEC3"
		},
		{
			"bufferView":2,
			"componentType":5126,
			"count":39998,
			"type":"VEC2"
		},
		{
			"bufferView":3,
			"componentType":5123,
			"count":150000,
			"type":"SCALAR"
		}
	],
	"bufferViews":[
		{
			"buffer":0,
			"byteLength":479976,
			"byteOffset":0,
			"target":34962
		},
		{
			"buffer":0,
			"byteLength":479976,
			"byteOffset":479976,
			"target":34962
		},
		{
			"buffer":0,
			"byteLength":319984,
			"byteOffset":959952,
			"target":34962
		},
		{
			"buffer":0,
			"byteLength":300000,
			"byteOffset":1279936,
			"target":34963
		}
	],
	"samplers":[
		{
			"magFilter":9729,
			"minFilter":9987
		}
	],
	"buffers":[
		{
			"byteLength":1579936,
			"uri":"climber0033.bin"
		}
	]
}
