{
	"asset":{
		"generator":"Khronos glTF Blender I/O v4.2.60",
		"version":"2.0"
	},
	"scene":0,
	"scenes":[
		{
			"name":"Scene",
			"nodes":[
				0
			]
		}
	],
	"nodes":[
		{
			"mesh":0,
			"name":"Mesh_0.026"
		}
	],
	"materials":[
		{
			"doubleSided":true,
			"name":"Material_0.026",
			"pbrMetallicRoughness":{
				"baseColorTexture":{
					"index":0
				},
				"metallicFactor":0,
				"roughnessFactor":0.800000011920929
			}
		}
	],
	"meshes":[
		{
			"name":"Mesh_0.026",
			"primitives":[
				{
					"attributes":{
						"POSITION":0,
						"NORMAL":1,
						"TEXCOORD_0":2
					},
					"indices":3,
					"material":0
				}
			]
		}
	],
	"textures":[
		{
			"sampler":0,
			"source":0
		}
	],
	"images":[
		{
			"mimeType":"image/jpeg",
			"name":"Image_0",
			"uri":"Image_0.jpg"
		}
	],
	"accessors":[
		{
			"bufferView":0,
			"componentType":5126,
			"count":35304,
			"max":[
				0.9998400211334229,
				0.8737300038337708,
				0.8274829983711243
			],
			"min":[
				-1.0019129514694214,
				-0.8733630180358887,
				-0.83125901222229
			],
			"type":"VEC3"
		},
		{
			"bufferView":1,
			"componentType":5126,
			"count":35304,
			"type":"VEC3"
		},
		{
			"bufferView":2,
			"componentType":5126,
			"count":35304,
			"type":"VEC2"
		},
		{
			"bufferView":3,
			"componentType":5123,
			"count":150000,
			"type":"SCALAR"
		}
	],
	"bufferViews":[
		{
			"buffer":0,
			"byteLength":423648,
			"byteOffset":0,
			"target":34962
		},
		{
			"buffer":0,
			"byteLength":423648,
			"byteOffset":423648,
			"target":34962
		},
		{
			"buffer":0,
			"byteLength":282432,
			"byteOffset":847296,
			"target":34962
		},
		{
			"buffer":0,
			"byteLength":300000,
			"byteOffset":1129728,
			"target":34963
		}
	],
	"samplers":[
		{
			"magFilter":9729,
			"minFilter":9987
		}
	],
	"buffers":[
		{
			"byteLength":1429728,
			"uri":"HERB0082.bin"
		}
	]
}
