{
	"asset":{
		"generator":"Khronos glTF Blender I/O v4.2.60",
		"version":"2.0"
	},
	"scene":0,
	"scenes":[
		{
			"name":"Scene",
			"nodes":[
				0
			]
		}
	],
	"nodes":[
		{
			"mesh":0,
			"name":"Mesh_0.015"
		}
	],
	"materials":[
		{
			"doubleSided":true,
			"name":"Material_0.015",
			"pbrMetallicRoughness":{
				"baseColorTexture":{
					"index":0
				},
				"metallicFactor":0,
				"roughnessFactor":0.800000011920929
			}
		}
	],
	"meshes":[
		{
			"name":"Mesh_0.015",
			"primitives":[
				{
					"attributes":{
						"POSITION":0,
						"NORMAL":1,
						"TEXCOORD_0":2
					},
					"indices":3,
					"material":0
				}
			]
		}
	],
	"textures":[
		{
			"sampler":0,
			"source":0
		}
	],
	"images":[
		{
			"mimeType":"image/jpeg",
			"name":"Image_0",
			"uri":"Image_0.jpg"
		}
	],
	"accessors":[
		{
			"bufferView":0,
			"componentType":5126,
			"count":40199,
			"max":[
				0.9557009935379028,
				1.0024789571762085,
				0.9005420207977295
			],
			"min":[
				-0.9581909775733948,
				-0.9987990260124207,
				-0.8927980065345764
			],
			"type":"VEC3"
		},
		{
			"bufferView":1,
			"componentType":5126,
			"count":40199,
			"type":"VEC3"
		},
		{
			"bufferView":2,
			"componentType":5126,
			"count":40199,
			"type":"VEC2"
		},
		{
			"bufferView":3,
			"componentType":5123,
			"count":150000,
			"type":"SCALAR"
		}
	],
	"bufferViews":[
		{
			"buffer":0,
			"byteLength":482388,
			"byteOffset":0,
			"target":34962
		},
		{
			"buffer":0,
			"byteLength":482388,
			"byteOffset":482388,
			"target":34962
		},
		{
			"buffer":0,
			"byteLength":321592,
			"byteOffset":964776,
			"target":34962
		},
		{
			"buffer":0,
			"byteLength":300000,
			"byteOffset":1286368,
			"target":34963
		}
	],
	"samplers":[
		{
			"magFilter":9729,
			"minFilter":9987
		}
	],
	"buffers":[
		{
			"byteLength":1586368,
			"uri":"herb0039.bin"
		}
	]
}
