{
	"asset":{
		"generator":"Khronos glTF Blender I/O v4.2.60",
		"version":"2.0"
	},
	"scene":0,
	"scenes":[
		{
			"name":"Scene",
			"nodes":[
				0
			]
		}
	],
	"nodes":[
		{
			"mesh":0,
			"name":"Mesh_0.063"
		}
	],
	"materials":[
		{
			"doubleSided":true,
			"name":"Material_0.063",
			"pbrMetallicRoughness":{
				"baseColorTexture":{
					"index":0
				},
				"metallicFactor":0,
				"roughnessFactor":0.800000011920929
			}
		}
	],
	"meshes":[
		{
			"name":"Mesh_0.063",
			"primitives":[
				{
					"attributes":{
						"POSITION":0,
						"NORMAL":1,
						"TEXCOORD_0":2
					},
					"indices":3,
					"material":0
				}
			]
		}
	],
	"textures":[
		{
			"sampler":0,
			"source":0
		}
	],
	"images":[
		{
			"mimeType":"image/jpeg",
			"name":"Image_0",
			"uri":"Image_0.jpg"
		}
	],
	"accessors":[
		{
			"bufferView":0,
			"componentType":5126,
			"count":31082,
			"max":[
				0.9967889785766602,
				0.8882889747619629,
				0.5460559725761414
			],
			"min":[
				-1.001520037651062,
				-0.8941400051116943,
				-0.5512620210647583
			],
			"type":"VEC3"
		},
		{
			"bufferView":1,
			"componentType":5126,
			"count":31082,
			"type":"VEC3"
		},
		{
			"bufferView":2,
			"componentType":5126,
			"count":31082,
			"type":"VEC2"
		},
		{
			"bufferView":3,
			"componentType":5123,
			"count":150000,
			"type":"SCALAR"
		}
	],
	"bufferViews":[
		{
			"buffer":0,
			"byteLength":372984,
			"byteOffset":0,
			"target":34962
		},
		{
			"buffer":0,
			"byteLength":372984,
			"byteOffset":372984,
			"target":34962
		},
		{
			"buffer":0,
			"byteLength":248656,
			"byteOffset":745968,
			"target":34962
		},
		{
			"buffer":0,
			"byteLength":300000,
			"byteOffset":994624,
			"target":34963
		}
	],
	"samplers":[
		{
			"magFilter":9729,
			"minFilter":9987
		}
	],
	"buffers":[
		{
			"byteLength":1294624,
			"uri":"TREE0086.bin"
		}
	]
}
