{
	"asset":{
		"generator":"Khronos glTF Blender I/O v4.2.60",
		"version":"2.0"
	},
	"scene":0,
	"scenes":[
		{
			"name":"Scene",
			"nodes":[
				0
			]
		}
	],
	"nodes":[
		{
			"mesh":0,
			"name":"Mesh_0.038"
		}
	],
	"materials":[
		{
			"doubleSided":true,
			"name":"Material_0.038",
			"pbrMetallicRoughness":{
				"baseColorTexture":{
					"index":0
				},
				"metallicFactor":0,
				"roughnessFactor":0.800000011920929
			}
		}
	],
	"meshes":[
		{
			"name":"Mesh_0.038",
			"primitives":[
				{
					"attributes":{
						"POSITION":0,
						"NORMAL":1,
						"TEXCOORD_0":2
					},
					"indices":3,
					"material":0
				}
			]
		}
	],
	"textures":[
		{
			"sampler":0,
			"source":0
		}
	],
	"images":[
		{
			"mimeType":"image/jpeg",
			"name":"Image_0",
			"uri":"Image_0.jpg"
		}
	],
	"accessors":[
		{
			"bufferView":0,
			"componentType":5126,
			"count":40283,
			"max":[
				0.969793975353241,
				0.7444149851799011,
				1.0081299543380737
			],
			"min":[
				-0.9676269888877869,
				-0.7544819712638855,
				-0.9931809902191162
			],
			"type":"VEC3"
		},
		{
			"bufferView":1,
			"componentType":5126,
			"count":40283,
			"type":"VEC3"
		},
		{
			"bufferView":2,
			"componentType":5126,
			"count":40283,
			"type":"VEC2"
		},
		{
			"bufferView":3,
			"componentType":5123,
			"count":150000,
			"type":"SCALAR"
		}
	],
	"bufferViews":[
		{
			"buffer":0,
			"byteLength":483396,
			"byteOffset":0,
			"target":34962
		},
		{
			"buffer":0,
			"byteLength":483396,
			"byteOffset":483396,
			"target":34962
		},
		{
			"buffer":0,
			"byteLength":322264,
			"byteOffset":966792,
			"target":34962
		},
		{
			"buffer":0,
			"byteLength":300000,
			"byteOffset":1289056,
			"target":34963
		}
	],
	"samplers":[
		{
			"magFilter":9729,
			"minFilter":9987
		}
	],
	"buffers":[
		{
			"byteLength":1589056,
			"uri":"SHRUB0029.bin"
		}
	]
}
