{
	"asset":{
		"generator":"Khronos glTF Blender I/O v4.2.60",
		"version":"2.0"
	},
	"scene":0,
	"scenes":[
		{
			"name":"Scene",
			"nodes":[
				0
			]
		}
	],
	"nodes":[
		{
			"mesh":0,
			"name":"Mesh_0.001"
		}
	],
	"materials":[
		{
			"doubleSided":true,
			"name":"Material_0.001",
			"pbrMetallicRoughness":{
				"baseColorTexture":{
					"index":0
				},
				"metallicFactor":0,
				"roughnessFactor":0.800000011920929
			}
		}
	],
	"meshes":[
		{
			"name":"Mesh_0.001",
			"primitives":[
				{
					"attributes":{
						"POSITION":0,
						"NORMAL":1,
						"TEXCOORD_0":2
					},
					"indices":3,
					"material":0
				}
			]
		}
	],
	"textures":[
		{
			"sampler":0,
			"source":0
		}
	],
	"images":[
		{
			"mimeType":"image/jpeg",
			"name":"Image_0",
			"uri":"Image_0.jpg"
		}
	],
	"accessors":[
		{
			"bufferView":0,
			"componentType":5126,
			"count":38800,
			"max":[
				1.002709984779358,
				0.897816002368927,
				0.5962759852409363
			],
			"min":[
				-1.0009829998016357,
				-0.9046739935874939,
				-0.6026790142059326
			],
			"type":"VEC3"
		},
		{
			"bufferView":1,
			"componentType":5126,
			"count":38800,
			"type":"VEC3"
		},
		{
			"bufferView":2,
			"componentType":5126,
			"count":38800,
			"type":"VEC2"
		},
		{
			"bufferView":3,
			"componentType":5123,
			"count":149997,
			"type":"SCALAR"
		}
	],
	"bufferViews":[
		{
			"buffer":0,
			"byteLength":465600,
			"byteOffset":0,
			"target":34962
		},
		{
			"buffer":0,
			"byteLength":465600,
			"byteOffset":465600,
			"target":34962
		},
		{
			"buffer":0,
			"byteLength":310400,
			"byteOffset":931200,
			"target":34962
		},
		{
			"buffer":0,
			"byteLength":299994,
			"byteOffset":1241600,
			"target":34963
		}
	],
	"samplers":[
		{
			"magFilter":9729,
			"minFilter":9987
		}
	],
	"buffers":[
		{
			"byteLength":1541596,
			"uri":"creeper0023.bin"
		}
	]
}
