{
	"asset":{
		"generator":"Khronos glTF Blender I/O v4.2.60",
		"version":"2.0"
	},
	"scene":0,
	"scenes":[
		{
			"name":"Scene",
			"nodes":[
				0
			]
		}
	],
	"nodes":[
		{
			"mesh":0,
			"name":"Mesh_0"
		}
	],
	"materials":[
		{
			"doubleSided":true,
			"name":"Material_0.018",
			"pbrMetallicRoughness":{
				"baseColorTexture":{
					"index":0
				},
				"metallicFactor":0,
				"roughnessFactor":0.800000011920929
			}
		}
	],
	"meshes":[
		{
			"name":"Mesh_0.018",
			"primitives":[
				{
					"attributes":{
						"POSITION":0,
						"NORMAL":1,
						"TEXCOORD_0":2
					},
					"indices":3,
					"material":0
				}
			]
		}
	],
	"textures":[
		{
			"sampler":0,
			"source":0
		}
	],
	"images":[
		{
			"mimeType":"image/jpeg",
			"name":"Image_0",
			"uri":"Image_0.jpg"
		}
	],
	"accessors":[
		{
			"bufferView":0,
			"componentType":5126,
			"count":44531,
			"max":[
				0.9435610175132751,
				0.9839059710502625,
				0.8577010035514832
			],
			"min":[
				-0.944691002368927,
				-1.0028879642486572,
				-0.8597260117530823
			],
			"type":"VEC3"
		},
		{
			"bufferView":1,
			"componentType":5126,
			"count":44531,
			"type":"VEC3"
		},
		{
			"bufferView":2,
			"componentType":5126,
			"count":44531,
			"type":"VEC2"
		},
		{
			"bufferView":3,
			"componentType":5123,
			"count":150000,
			"type":"SCALAR"
		}
	],
	"bufferViews":[
		{
			"buffer":0,
			"byteLength":534372,
			"byteOffset":0,
			"target":34962
		},
		{
			"buffer":0,
			"byteLength":534372,
			"byteOffset":534372,
			"target":34962
		},
		{
			"buffer":0,
			"byteLength":356248,
			"byteOffset":1068744,
			"target":34962
		},
		{
			"buffer":0,
			"byteLength":300000,
			"byteOffset":1424992,
			"target":34963
		}
	],
	"samplers":[
		{
			"magFilter":9729,
			"minFilter":9987
		}
	],
	"buffers":[
		{
			"byteLength":1724992,
			"uri":"tree0026.bin"
		}
	]
}
