{
	"asset":{
		"generator":"Khronos glTF Blender I/O v4.2.60",
		"version":"2.0"
	},
	"scene":0,
	"scenes":[
		{
			"name":"Scene",
			"nodes":[
				0
			]
		}
	],
	"nodes":[
		{
			"mesh":0,
			"name":"Mesh_0.053"
		}
	],
	"materials":[
		{
			"doubleSided":true,
			"name":"Material_0.053",
			"pbrMetallicRoughness":{
				"baseColorTexture":{
					"index":0
				},
				"metallicFactor":0,
				"roughnessFactor":0.800000011920929
			}
		}
	],
	"meshes":[
		{
			"name":"Mesh_0.053",
			"primitives":[
				{
					"attributes":{
						"POSITION":0,
						"NORMAL":1,
						"TEXCOORD_0":2
					},
					"indices":3,
					"material":0
				}
			]
		}
	],
	"textures":[
		{
			"sampler":0,
			"source":0
		}
	],
	"images":[
		{
			"mimeType":"image/jpeg",
			"name":"Image_0",
			"uri":"Image_0.jpg"
		}
	],
	"accessors":[
		{
			"bufferView":0,
			"componentType":5126,
			"count":31974,
			"max":[
				0.6894350051879883,
				1.0024199485778809,
				0.7394359707832336
			],
			"min":[
				-0.6902570128440857,
				-1.0015530586242676,
				-0.7458850145339966
			],
			"type":"VEC3"
		},
		{
			"bufferView":1,
			"componentType":5126,
			"count":31974,
			"type":"VEC3"
		},
		{
			"bufferView":2,
			"componentType":5126,
			"count":31974,
			"type":"VEC2"
		},
		{
			"bufferView":3,
			"componentType":5123,
			"count":150000,
			"type":"SCALAR"
		}
	],
	"bufferViews":[
		{
			"buffer":0,
			"byteLength":383688,
			"byteOffset":0,
			"target":34962
		},
		{
			"buffer":0,
			"byteLength":383688,
			"byteOffset":383688,
			"target":34962
		},
		{
			"buffer":0,
			"byteLength":255792,
			"byteOffset":767376,
			"target":34962
		},
		{
			"buffer":0,
			"byteLength":300000,
			"byteOffset":1023168,
			"target":34963
		}
	],
	"samplers":[
		{
			"magFilter":9729,
			"minFilter":9987
		}
	],
	"buffers":[
		{
			"byteLength":1323168,
			"uri":"TREE0045.bin"
		}
	]
}
