{
	"asset":{
		"generator":"Khronos glTF Blender I/O v4.2.60",
		"version":"2.0"
	},
	"scene":0,
	"scenes":[
		{
			"name":"Scene",
			"nodes":[
				0
			]
		}
	],
	"nodes":[
		{
			"mesh":0,
			"name":"Mesh_0.014"
		}
	],
	"materials":[
		{
			"doubleSided":true,
			"name":"Material_0.014",
			"pbrMetallicRoughness":{
				"baseColorTexture":{
					"index":0
				},
				"metallicFactor":0,
				"roughnessFactor":0.800000011920929
			}
		}
	],
	"meshes":[
		{
			"name":"Mesh_0.014",
			"primitives":[
				{
					"attributes":{
						"POSITION":0,
						"NORMAL":1,
						"TEXCOORD_0":2
					},
					"indices":3,
					"material":0
				}
			]
		}
	],
	"textures":[
		{
			"sampler":0,
			"source":0
		}
	],
	"images":[
		{
			"mimeType":"image/jpeg",
			"name":"Image_0",
			"uri":"Image_0.jpg"
		}
	],
	"accessors":[
		{
			"bufferView":0,
			"componentType":5126,
			"count":50921,
			"max":[
				1.0214240550994873,
				0.9973940253257751,
				0.8806260228157043
			],
			"min":[
				-0.9739130139350891,
				-1.0143500566482544,
				-0.8855590224266052
			],
			"type":"VEC3"
		},
		{
			"bufferView":1,
			"componentType":5126,
			"count":50921,
			"type":"VEC3"
		},
		{
			"bufferView":2,
			"componentType":5126,
			"count":50921,
			"type":"VEC2"
		},
		{
			"bufferView":3,
			"componentType":5123,
			"count":150000,
			"type":"SCALAR"
		}
	],
	"bufferViews":[
		{
			"buffer":0,
			"byteLength":611052,
			"byteOffset":0,
			"target":34962
		},
		{
			"buffer":0,
			"byteLength":611052,
			"byteOffset":611052,
			"target":34962
		},
		{
			"buffer":0,
			"byteLength":407368,
			"byteOffset":1222104,
			"target":34962
		},
		{
			"buffer":0,
			"byteLength":300000,
			"byteOffset":1629472,
			"target":34963
		}
	],
	"samplers":[
		{
			"magFilter":9729,
			"minFilter":9987
		}
	],
	"buffers":[
		{
			"byteLength":1929472,
			"uri":"herb0037.bin"
		}
	]
}
