{
	"asset":{
		"generator":"Khronos glTF Blender I/O v4.2.60",
		"version":"2.0"
	},
	"scene":0,
	"scenes":[
		{
			"name":"Scene",
			"nodes":[
				0
			]
		}
	],
	"nodes":[
		{
			"mesh":0,
			"name":"Mesh_0"
		}
	],
	"materials":[
		{
			"doubleSided":true,
			"name":"Material_0.004",
			"pbrMetallicRoughness":{
				"baseColorTexture":{
					"index":0
				},
				"metallicFactor":0,
				"roughnessFactor":0.800000011920929
			}
		}
	],
	"meshes":[
		{
			"name":"Mesh_0.004",
			"primitives":[
				{
					"attributes":{
						"POSITION":0,
						"NORMAL":1,
						"TEXCOORD_0":2
					},
					"indices":3,
					"material":0
				}
			]
		}
	],
	"textures":[
		{
			"sampler":0,
			"source":0
		}
	],
	"images":[
		{
			"mimeType":"image/jpeg",
			"name":"Image_0",
			"uri":"Image_0.jpg"
		}
	],
	"accessors":[
		{
			"bufferView":0,
			"componentType":5126,
			"count":63406,
			"max":[
				0.8926020264625549,
				0.9126369953155518,
				0.9595230221748352
			],
			"min":[
				-0.9014930129051208,
				-0.9918019771575928,
				-0.9683629870414734
			],
			"type":"VEC3"
		},
		{
			"bufferView":1,
			"componentType":5126,
			"count":63406,
			"type":"VEC3"
		},
		{
			"bufferView":2,
			"componentType":5126,
			"count":63406,
			"type":"VEC2"
		},
		{
			"bufferView":3,
			"componentType":5123,
			"count":149838,
			"type":"SCALAR"
		}
	],
	"bufferViews":[
		{
			"buffer":0,
			"byteLength":760872,
			"byteOffset":0,
			"target":34962
		},
		{
			"buffer":0,
			"byteLength":760872,
			"byteOffset":760872,
			"target":34962
		},
		{
			"buffer":0,
			"byteLength":507248,
			"byteOffset":1521744,
			"target":34962
		},
		{
			"buffer":0,
			"byteLength":299676,
			"byteOffset":2028992,
			"target":34963
		}
	],
	"samplers":[
		{
			"magFilter":9729,
			"minFilter":9987
		}
	],
	"buffers":[
		{
			"byteLength":2328668,
			"uri":"herb0002.bin"
		}
	]
}
