{
	"asset":{
		"generator":"Khronos glTF Blender I/O v4.2.60",
		"version":"2.0"
	},
	"scene":0,
	"scenes":[
		{
			"name":"Scene",
			"nodes":[
				0
			]
		}
	],
	"nodes":[
		{
			"mesh":0,
			"name":"Mesh_0.032"
		}
	],
	"materials":[
		{
			"doubleSided":true,
			"name":"Material_0.032",
			"pbrMetallicRoughness":{
				"baseColorTexture":{
					"index":0
				},
				"metallicFactor":0,
				"roughnessFactor":0.800000011920929
			}
		}
	],
	"meshes":[
		{
			"name":"Mesh_0.032",
			"primitives":[
				{
					"attributes":{
						"POSITION":0,
						"NORMAL":1,
						"TEXCOORD_0":2
					},
					"indices":3,
					"material":0
				}
			]
		}
	],
	"textures":[
		{
			"sampler":0,
			"source":0
		}
	],
	"images":[
		{
			"mimeType":"image/jpeg",
			"name":"Image_0",
			"uri":"Image_0.jpg"
		}
	],
	"accessors":[
		{
			"bufferView":0,
			"componentType":5126,
			"count":43647,
			"max":[
				0.9004520177841187,
				0.9812110066413879,
				0.8190760016441345
			],
			"min":[
				-0.9092379808425903,
				-1.0525000095367432,
				-0.8337230086326599
			],
			"type":"VEC3"
		},
		{
			"bufferView":1,
			"componentType":5126,
			"count":43647,
			"type":"VEC3"
		},
		{
			"bufferView":2,
			"componentType":5126,
			"count":43647,
			"type":"VEC2"
		},
		{
			"bufferView":3,
			"componentType":5123,
			"count":150000,
			"type":"SCALAR"
		}
	],
	"bufferViews":[
		{
			"buffer":0,
			"byteLength":523764,
			"byteOffset":0,
			"target":34962
		},
		{
			"buffer":0,
			"byteLength":523764,
			"byteOffset":523764,
			"target":34962
		},
		{
			"buffer":0,
			"byteLength":349176,
			"byteOffset":1047528,
			"target":34962
		},
		{
			"buffer":0,
			"byteLength":300000,
			"byteOffset":1396704,
			"target":34963
		}
	],
	"samplers":[
		{
			"magFilter":9729,
			"minFilter":9987
		}
	],
	"buffers":[
		{
			"byteLength":1696704,
			"uri":"SHRUB0007.bin"
		}
	]
}
