{
	"asset":{
		"generator":"Khronos glTF Blender I/O v4.2.60",
		"version":"2.0"
	},
	"scene":0,
	"scenes":[
		{
			"name":"Scene",
			"nodes":[
				0
			]
		}
	],
	"nodes":[
		{
			"mesh":0,
			"name":"Mesh_0.020"
		}
	],
	"materials":[
		{
			"doubleSided":true,
			"name":"Material_0.020",
			"pbrMetallicRoughness":{
				"baseColorTexture":{
					"index":0
				},
				"metallicFactor":0,
				"roughnessFactor":0.800000011920929
			}
		}
	],
	"meshes":[
		{
			"name":"Mesh_0.020",
			"primitives":[
				{
					"attributes":{
						"POSITION":0,
						"NORMAL":1,
						"TEXCOORD_0":2
					},
					"indices":3,
					"material":0
				}
			]
		}
	],
	"textures":[
		{
			"sampler":0,
			"source":0
		}
	],
	"images":[
		{
			"mimeType":"image/jpeg",
			"name":"Image_0",
			"uri":"Image_0.jpg"
		}
	],
	"accessors":[
		{
			"bufferView":0,
			"componentType":5126,
			"count":44963,
			"max":[
				1.0042370557785034,
				0.9813709855079651,
				0.36479198932647705
			],
			"min":[
				-0.9843069911003113,
				-1.0058900117874146,
				-0.3777419924736023
			],
			"type":"VEC3"
		},
		{
			"bufferView":1,
			"componentType":5126,
			"count":44963,
			"type":"VEC3"
		},
		{
			"bufferView":2,
			"componentType":5126,
			"count":44963,
			"type":"VEC2"
		},
		{
			"bufferView":3,
			"componentType":5123,
			"count":150000,
			"type":"SCALAR"
		}
	],
	"bufferViews":[
		{
			"buffer":0,
			"byteLength":539556,
			"byteOffset":0,
			"target":34962
		},
		{
			"buffer":0,
			"byteLength":539556,
			"byteOffset":539556,
			"target":34962
		},
		{
			"buffer":0,
			"byteLength":359704,
			"byteOffset":1079112,
			"target":34962
		},
		{
			"buffer":0,
			"byteLength":300000,
			"byteOffset":1438816,
			"target":34963
		}
	],
	"samplers":[
		{
			"magFilter":9729,
			"minFilter":9987
		}
	],
	"buffers":[
		{
			"byteLength":1738816,
			"uri":"HERB0053.bin"
		}
	]
}
