{
	"asset":{
		"generator":"Khronos glTF Blender I/O v4.2.60",
		"version":"2.0"
	},
	"scene":0,
	"scenes":[
		{
			"name":"Scene",
			"nodes":[
				0
			]
		}
	],
	"nodes":[
		{
			"mesh":0,
			"name":"Mesh_0.011"
		}
	],
	"materials":[
		{
			"doubleSided":true,
			"name":"Material_0.011",
			"pbrMetallicRoughness":{
				"baseColorTexture":{
					"index":0
				},
				"metallicFactor":0,
				"roughnessFactor":0.800000011920929
			}
		}
	],
	"meshes":[
		{
			"name":"Mesh_0.011",
			"primitives":[
				{
					"attributes":{
						"POSITION":0,
						"NORMAL":1,
						"TEXCOORD_0":2
					},
					"indices":3,
					"material":0
				}
			]
		}
	],
	"textures":[
		{
			"sampler":0,
			"source":0
		}
	],
	"images":[
		{
			"mimeType":"image/jpeg",
			"name":"Image_0",
			"uri":"Image_0.jpg"
		}
	],
	"accessors":[
		{
			"bufferView":0,
			"componentType":5126,
			"count":36681,
			"max":[
				1.001039981842041,
				0.9771190285682678,
				0.8046709895133972
			],
			"min":[
				-1.0017149448394775,
				-0.9789649844169617,
				-0.9970589876174927
			],
			"type":"VEC3"
		},
		{
			"bufferView":1,
			"componentType":5126,
			"count":36681,
			"type":"VEC3"
		},
		{
			"bufferView":2,
			"componentType":5126,
			"count":36681,
			"type":"VEC2"
		},
		{
			"bufferView":3,
			"componentType":5123,
			"count":139926,
			"type":"SCALAR"
		}
	],
	"bufferViews":[
		{
			"buffer":0,
			"byteLength":440172,
			"byteOffset":0,
			"target":34962
		},
		{
			"buffer":0,
			"byteLength":440172,
			"byteOffset":440172,
			"target":34962
		},
		{
			"buffer":0,
			"byteLength":293448,
			"byteOffset":880344,
			"target":34962
		},
		{
			"buffer":0,
			"byteLength":279852,
			"byteOffset":1173792,
			"target":34963
		}
	],
	"samplers":[
		{
			"magFilter":9729,
			"minFilter":9987
		}
	],
	"buffers":[
		{
			"byteLength":1453644,
			"uri":"herb0013.bin"
		}
	]
}
