{
	"asset":{
		"generator":"Khronos glTF Blender I/O v4.2.60",
		"version":"2.0"
	},
	"scene":0,
	"scenes":[
		{
			"name":"Scene",
			"nodes":[
				0
			]
		}
	],
	"nodes":[
		{
			"mesh":0,
			"name":"Mesh_0.041"
		}
	],
	"materials":[
		{
			"doubleSided":true,
			"name":"Material_0.041",
			"pbrMetallicRoughness":{
				"baseColorTexture":{
					"index":0
				},
				"metallicFactor":0,
				"roughnessFactor":0.800000011920929
			}
		}
	],
	"meshes":[
		{
			"name":"Mesh_0.041",
			"primitives":[
				{
					"attributes":{
						"POSITION":0,
						"NORMAL":1,
						"TEXCOORD_0":2
					},
					"indices":3,
					"material":0
				}
			]
		}
	],
	"textures":[
		{
			"sampler":0,
			"source":0
		}
	],
	"images":[
		{
			"mimeType":"image/jpeg",
			"name":"Image_0",
			"uri":"Image_0.jpg"
		}
	],
	"accessors":[
		{
			"bufferView":0,
			"componentType":5126,
			"count":55172,
			"max":[
				0.9847649931907654,
				1.0133219957351685,
				0.47217100858688354
			],
			"min":[
				-1.0041899681091309,
				-0.9832130074501038,
				-0.4954270124435425
			],
			"type":"VEC3"
		},
		{
			"bufferView":1,
			"componentType":5126,
			"count":55172,
			"type":"VEC3"
		},
		{
			"bufferView":2,
			"componentType":5126,
			"count":55172,
			"type":"VEC2"
		},
		{
			"bufferView":3,
			"componentType":5123,
			"count":150000,
			"type":"SCALAR"
		}
	],
	"bufferViews":[
		{
			"buffer":0,
			"byteLength":662064,
			"byteOffset":0,
			"target":34962
		},
		{
			"buffer":0,
			"byteLength":662064,
			"byteOffset":662064,
			"target":34962
		},
		{
			"buffer":0,
			"byteLength":441376,
			"byteOffset":1324128,
			"target":34962
		},
		{
			"buffer":0,
			"byteLength":300000,
			"byteOffset":1765504,
			"target":34963
		}
	],
	"samplers":[
		{
			"magFilter":9729,
			"minFilter":9987
		}
	],
	"buffers":[
		{
			"byteLength":2065504,
			"uri":"SHRUB0041.bin"
		}
	]
}
