{
	"asset":{
		"generator":"Khronos glTF Blender I/O v4.2.60",
		"version":"2.0"
	},
	"scene":0,
	"scenes":[
		{
			"name":"Scene",
			"nodes":[
				0
			]
		}
	],
	"nodes":[
		{
			"mesh":0,
			"name":"Mesh_0.059"
		}
	],
	"materials":[
		{
			"doubleSided":true,
			"name":"Material_0.059",
			"pbrMetallicRoughness":{
				"baseColorTexture":{
					"index":0
				},
				"metallicFactor":0,
				"roughnessFactor":0.800000011920929
			}
		}
	],
	"meshes":[
		{
			"name":"Mesh_0.059",
			"primitives":[
				{
					"attributes":{
						"POSITION":0,
						"NORMAL":1,
						"TEXCOORD_0":2
					},
					"indices":3,
					"material":0
				}
			]
		}
	],
	"textures":[
		{
			"sampler":0,
			"source":0
		}
	],
	"images":[
		{
			"mimeType":"image/jpeg",
			"name":"Image_0",
			"uri":"Image_0.jpg"
		}
	],
	"accessors":[
		{
			"bufferView":0,
			"componentType":5126,
			"count":43854,
			"max":[
				0.926705002784729,
				0.9854210019111633,
				1.0005730390548706
			],
			"min":[
				-0.9237030148506165,
				-0.9896510243415833,
				-1.001304030418396
			],
			"type":"VEC3"
		},
		{
			"bufferView":1,
			"componentType":5126,
			"count":43854,
			"type":"VEC3"
		},
		{
			"bufferView":2,
			"componentType":5126,
			"count":43854,
			"type":"VEC2"
		},
		{
			"bufferView":3,
			"componentType":5123,
			"count":149997,
			"type":"SCALAR"
		}
	],
	"bufferViews":[
		{
			"buffer":0,
			"byteLength":526248,
			"byteOffset":0,
			"target":34962
		},
		{
			"buffer":0,
			"byteLength":526248,
			"byteOffset":526248,
			"target":34962
		},
		{
			"buffer":0,
			"byteLength":350832,
			"byteOffset":1052496,
			"target":34962
		},
		{
			"buffer":0,
			"byteLength":299994,
			"byteOffset":1403328,
			"target":34963
		}
	],
	"samplers":[
		{
			"magFilter":9729,
			"minFilter":9987
		}
	],
	"buffers":[
		{
			"byteLength":1703324,
			"uri":"TREE0081.bin"
		}
	]
}
