{
	"asset":{
		"generator":"Khronos glTF Blender I/O v4.2.60",
		"version":"2.0"
	},
	"scene":0,
	"scenes":[
		{
			"name":"Scene",
			"nodes":[
				0
			]
		}
	],
	"nodes":[
		{
			"mesh":0,
			"name":"Mesh_0.004"
		}
	],
	"materials":[
		{
			"doubleSided":true,
			"name":"Material_0.004",
			"pbrMetallicRoughness":{
				"baseColorTexture":{
					"index":0
				},
				"metallicFactor":0,
				"roughnessFactor":0.800000011920929
			}
		}
	],
	"meshes":[
		{
			"name":"Mesh_0.004",
			"primitives":[
				{
					"attributes":{
						"POSITION":0,
						"NORMAL":1,
						"TEXCOORD_0":2
					},
					"indices":3,
					"material":0
				}
			]
		}
	],
	"textures":[
		{
			"sampler":0,
			"source":0
		}
	],
	"images":[
		{
			"mimeType":"image/jpeg",
			"name":"Image_0",
			"uri":"Image_0.jpg"
		}
	],
	"accessors":[
		{
			"bufferView":0,
			"componentType":5126,
			"count":41284,
			"max":[
				0.8848699927330017,
				1.03125,
				0.5690019726753235
			],
			"min":[
				-0.8905360102653503,
				-1.0046570301055908,
				-0.5705540180206299
			],
			"type":"VEC3"
		},
		{
			"bufferView":1,
			"componentType":5126,
			"count":41284,
			"type":"VEC3"
		},
		{
			"bufferView":2,
			"componentType":5126,
			"count":41284,
			"type":"VEC2"
		},
		{
			"bufferView":3,
			"componentType":5123,
			"count":150000,
			"type":"SCALAR"
		}
	],
	"bufferViews":[
		{
			"buffer":0,
			"byteLength":495408,
			"byteOffset":0,
			"target":34962
		},
		{
			"buffer":0,
			"byteLength":495408,
			"byteOffset":495408,
			"target":34962
		},
		{
			"buffer":0,
			"byteLength":330272,
			"byteOffset":990816,
			"target":34962
		},
		{
			"buffer":0,
			"byteLength":300000,
			"byteOffset":1321088,
			"target":34963
		}
	],
	"samplers":[
		{
			"magFilter":9729,
			"minFilter":9987
		}
	],
	"buffers":[
		{
			"byteLength":1621088,
			"uri":"creeper0051.bin"
		}
	]
}
