{
	"asset":{
		"generator":"Khronos glTF Blender I/O v4.2.60",
		"version":"2.0"
	},
	"scene":0,
	"scenes":[
		{
			"name":"Scene",
			"nodes":[
				0
			]
		}
	],
	"nodes":[
		{
			"mesh":0,
			"name":"Mesh_0"
		}
	],
	"materials":[
		{
			"doubleSided":true,
			"name":"Material_0.019",
			"pbrMetallicRoughness":{
				"baseColorTexture":{
					"index":0
				},
				"metallicFactor":0,
				"roughnessFactor":0.800000011920929
			}
		}
	],
	"meshes":[
		{
			"name":"Mesh_0.019",
			"primitives":[
				{
					"attributes":{
						"POSITION":0,
						"NORMAL":1,
						"TEXCOORD_0":2
					},
					"indices":3,
					"material":0
				}
			]
		}
	],
	"textures":[
		{
			"sampler":0,
			"source":0
		}
	],
	"images":[
		{
			"mimeType":"image/jpeg",
			"name":"Image_0",
			"uri":"Image_0.jpg"
		}
	],
	"accessors":[
		{
			"bufferView":0,
			"componentType":5126,
			"count":38510,
			"max":[
				0.6920729875564575,
				0.9957619905471802,
				0.5756170153617859
			],
			"min":[
				-0.6539130210876465,
				-1.0022399425506592,
				-0.5887320041656494
			],
			"type":"VEC3"
		},
		{
			"bufferView":1,
			"componentType":5126,
			"count":38510,
			"type":"VEC3"
		},
		{
			"bufferView":2,
			"componentType":5126,
			"count":38510,
			"type":"VEC2"
		},
		{
			"bufferView":3,
			"componentType":5123,
			"count":149997,
			"type":"SCALAR"
		}
	],
	"bufferViews":[
		{
			"buffer":0,
			"byteLength":462120,
			"byteOffset":0,
			"target":34962
		},
		{
			"buffer":0,
			"byteLength":462120,
			"byteOffset":462120,
			"target":34962
		},
		{
			"buffer":0,
			"byteLength":308080,
			"byteOffset":924240,
			"target":34962
		},
		{
			"buffer":0,
			"byteLength":299994,
			"byteOffset":1232320,
			"target":34963
		}
	],
	"samplers":[
		{
			"magFilter":9729,
			"minFilter":9987
		}
	],
	"buffers":[
		{
			"byteLength":1532316,
			"uri":"tree0027.bin"
		}
	]
}
