{
	"asset":{
		"generator":"Khronos glTF Blender I/O v4.2.60",
		"version":"2.0"
	},
	"scene":0,
	"scenes":[
		{
			"name":"Scene",
			"nodes":[
				0
			]
		}
	],
	"nodes":[
		{
			"mesh":0,
			"name":"Mesh_0"
		}
	],
	"materials":[
		{
			"doubleSided":true,
			"name":"Material_0.013",
			"pbrMetallicRoughness":{
				"baseColorTexture":{
					"index":0
				},
				"metallicFactor":0,
				"roughnessFactor":0.800000011920929
			}
		}
	],
	"meshes":[
		{
			"name":"Mesh_0.013",
			"primitives":[
				{
					"attributes":{
						"POSITION":0,
						"NORMAL":1,
						"TEXCOORD_0":2
					},
					"indices":3,
					"material":0
				}
			]
		}
	],
	"textures":[
		{
			"sampler":0,
			"source":0
		}
	],
	"images":[
		{
			"mimeType":"image/jpeg",
			"name":"Image_0",
			"uri":"Image_0.jpg"
		}
	],
	"accessors":[
		{
			"bufferView":0,
			"componentType":5126,
			"count":35548,
			"max":[
				0.9298229813575745,
				0.9621120095252991,
				1.0042500495910645
			],
			"min":[
				-0.9286320209503174,
				-0.9688950181007385,
				-1.0062999725341797
			],
			"type":"VEC3"
		},
		{
			"bufferView":1,
			"componentType":5126,
			"count":35548,
			"type":"VEC3"
		},
		{
			"bufferView":2,
			"componentType":5126,
			"count":35548,
			"type":"VEC2"
		},
		{
			"bufferView":3,
			"componentType":5123,
			"count":150000,
			"type":"SCALAR"
		}
	],
	"bufferViews":[
		{
			"buffer":0,
			"byteLength":426576,
			"byteOffset":0,
			"target":34962
		},
		{
			"buffer":0,
			"byteLength":426576,
			"byteOffset":426576,
			"target":34962
		},
		{
			"buffer":0,
			"byteLength":284384,
			"byteOffset":853152,
			"target":34962
		},
		{
			"buffer":0,
			"byteLength":300000,
			"byteOffset":1137536,
			"target":34963
		}
	],
	"samplers":[
		{
			"magFilter":9729,
			"minFilter":9987
		}
	],
	"buffers":[
		{
			"byteLength":1437536,
			"uri":"shrub0030.bin"
		}
	]
}
