{
	"asset":{
		"generator":"Khronos glTF Blender I/O v4.2.60",
		"version":"2.0"
	},
	"scene":0,
	"scenes":[
		{
			"name":"Scene",
			"nodes":[
				0
			]
		}
	],
	"nodes":[
		{
			"mesh":0,
			"name":"Mesh_0.027"
		}
	],
	"materials":[
		{
			"doubleSided":true,
			"name":"Material_0.027",
			"pbrMetallicRoughness":{
				"baseColorTexture":{
					"index":0
				},
				"metallicFactor":0,
				"roughnessFactor":0.800000011920929
			}
		}
	],
	"meshes":[
		{
			"name":"Mesh_0.027",
			"primitives":[
				{
					"attributes":{
						"POSITION":0,
						"NORMAL":1,
						"TEXCOORD_0":2
					},
					"indices":3,
					"material":0
				}
			]
		}
	],
	"textures":[
		{
			"sampler":0,
			"source":0
		}
	],
	"images":[
		{
			"mimeType":"image/jpeg",
			"name":"Image_0",
			"uri":"Image_0.jpg"
		}
	],
	"accessors":[
		{
			"bufferView":0,
			"componentType":5126,
			"count":35657,
			"max":[
				0.5610439777374268,
				0.9926940202713013,
				0.4947749972343445
			],
			"min":[
				-0.566644012928009,
				-1.0038909912109375,
				-0.49754899740219116
			],
			"type":"VEC3"
		},
		{
			"bufferView":1,
			"componentType":5126,
			"count":35657,
			"type":"VEC3"
		},
		{
			"bufferView":2,
			"componentType":5126,
			"count":35657,
			"type":"VEC2"
		},
		{
			"bufferView":3,
			"componentType":5123,
			"count":146898,
			"type":"SCALAR"
		}
	],
	"bufferViews":[
		{
			"buffer":0,
			"byteLength":427884,
			"byteOffset":0,
			"target":34962
		},
		{
			"buffer":0,
			"byteLength":427884,
			"byteOffset":427884,
			"target":34962
		},
		{
			"buffer":0,
			"byteLength":285256,
			"byteOffset":855768,
			"target":34962
		},
		{
			"buffer":0,
			"byteLength":293796,
			"byteOffset":1141024,
			"target":34963
		}
	],
	"samplers":[
		{
			"magFilter":9729,
			"minFilter":9987
		}
	],
	"buffers":[
		{
			"byteLength":1434820,
			"uri":"herb0018.bin"
		}
	]
}
