{
	"asset":{
		"generator":"Khronos glTF Blender I/O v4.2.60",
		"version":"2.0"
	},
	"scene":0,
	"scenes":[
		{
			"name":"Scene",
			"nodes":[
				0
			]
		}
	],
	"nodes":[
		{
			"mesh":0,
			"name":"Mesh_0.022"
		}
	],
	"materials":[
		{
			"doubleSided":true,
			"name":"Material_0.022",
			"pbrMetallicRoughness":{
				"baseColorTexture":{
					"index":0
				},
				"metallicFactor":0,
				"roughnessFactor":0.800000011920929
			}
		}
	],
	"meshes":[
		{
			"name":"Mesh_0.022",
			"primitives":[
				{
					"attributes":{
						"POSITION":0,
						"NORMAL":1,
						"TEXCOORD_0":2
					},
					"indices":3,
					"material":0
				}
			]
		}
	],
	"textures":[
		{
			"sampler":0,
			"source":0
		}
	],
	"images":[
		{
			"mimeType":"image/jpeg",
			"name":"Image_0",
			"uri":"Image_0.jpg"
		}
	],
	"accessors":[
		{
			"bufferView":0,
			"componentType":5126,
			"count":40637,
			"max":[
				0.7924889922142029,
				0.9958459734916687,
				0.2880299985408783
			],
			"min":[
				-0.8034570217132568,
				-1.0006639957427979,
				-0.30541399121284485
			],
			"type":"VEC3"
		},
		{
			"bufferView":1,
			"componentType":5126,
			"count":40637,
			"type":"VEC3"
		},
		{
			"bufferView":2,
			"componentType":5126,
			"count":40637,
			"type":"VEC2"
		},
		{
			"bufferView":3,
			"componentType":5123,
			"count":149997,
			"type":"SCALAR"
		}
	],
	"bufferViews":[
		{
			"buffer":0,
			"byteLength":487644,
			"byteOffset":0,
			"target":34962
		},
		{
			"buffer":0,
			"byteLength":487644,
			"byteOffset":487644,
			"target":34962
		},
		{
			"buffer":0,
			"byteLength":325096,
			"byteOffset":975288,
			"target":34962
		},
		{
			"buffer":0,
			"byteLength":299994,
			"byteOffset":1300384,
			"target":34963
		}
	],
	"samplers":[
		{
			"magFilter":9729,
			"minFilter":9987
		}
	],
	"buffers":[
		{
			"byteLength":1600380,
			"uri":"HERB0071.bin"
		}
	]
}
