{
	"asset":{
		"generator":"Khronos glTF Blender I/O v4.2.60",
		"version":"2.0"
	},
	"scene":0,
	"scenes":[
		{
			"name":"Scene",
			"nodes":[
				0
			]
		}
	],
	"nodes":[
		{
			"mesh":0,
			"name":"Mesh_0.030"
		}
	],
	"materials":[
		{
			"doubleSided":true,
			"name":"Material_0.030",
			"pbrMetallicRoughness":{
				"baseColorTexture":{
					"index":0
				},
				"metallicFactor":0,
				"roughnessFactor":0.800000011920929
			}
		}
	],
	"meshes":[
		{
			"name":"Mesh_0.030",
			"primitives":[
				{
					"attributes":{
						"POSITION":0,
						"NORMAL":1,
						"TEXCOORD_0":2
					},
					"indices":3,
					"material":0
				}
			]
		}
	],
	"textures":[
		{
			"sampler":0,
			"source":0
		}
	],
	"images":[
		{
			"mimeType":"image/jpeg",
			"name":"Image_0",
			"uri":"Image_0.jpg"
		}
	],
	"accessors":[
		{
			"bufferView":0,
			"componentType":5126,
			"count":59565,
			"max":[
				0.9855039715766907,
				0.9487720131874084,
				0.9832810163497925
			],
			"min":[
				-0.9573799967765808,
				-0.9597510099411011,
				-0.9686909914016724
			],
			"type":"VEC3"
		},
		{
			"bufferView":1,
			"componentType":5126,
			"count":59565,
			"type":"VEC3"
		},
		{
			"bufferView":2,
			"componentType":5126,
			"count":59565,
			"type":"VEC2"
		},
		{
			"bufferView":3,
			"componentType":5123,
			"count":149997,
			"type":"SCALAR"
		}
	],
	"bufferViews":[
		{
			"buffer":0,
			"byteLength":714780,
			"byteOffset":0,
			"target":34962
		},
		{
			"buffer":0,
			"byteLength":714780,
			"byteOffset":714780,
			"target":34962
		},
		{
			"buffer":0,
			"byteLength":476520,
			"byteOffset":1429560,
			"target":34962
		},
		{
			"buffer":0,
			"byteLength":299994,
			"byteOffset":1906080,
			"target":34963
		}
	],
	"samplers":[
		{
			"magFilter":9729,
			"minFilter":9987
		}
	],
	"buffers":[
		{
			"byteLength":2206076,
			"uri":"SEAWEED0017.bin"
		}
	]
}
