{
	"asset":{
		"generator":"Khronos glTF Blender I/O v4.2.60",
		"version":"2.0"
	},
	"scene":0,
	"scenes":[
		{
			"name":"Scene",
			"nodes":[
				0
			]
		}
	],
	"nodes":[
		{
			"mesh":0,
			"name":"Mesh_0.055"
		}
	],
	"materials":[
		{
			"doubleSided":true,
			"name":"Material_0.055",
			"pbrMetallicRoughness":{
				"baseColorTexture":{
					"index":0
				},
				"metallicFactor":0,
				"roughnessFactor":0.800000011920929
			}
		}
	],
	"meshes":[
		{
			"name":"Mesh_0.055",
			"primitives":[
				{
					"attributes":{
						"POSITION":0,
						"NORMAL":1,
						"TEXCOORD_0":2
					},
					"indices":3,
					"material":0
				}
			]
		}
	],
	"textures":[
		{
			"sampler":0,
			"source":0
		}
	],
	"images":[
		{
			"mimeType":"image/jpeg",
			"name":"Image_0",
			"uri":"Image_0.jpg"
		}
	],
	"accessors":[
		{
			"bufferView":0,
			"componentType":5126,
			"count":32944,
			"max":[
				0.9279969930648804,
				0.990418016910553,
				0.9602299928665161
			],
			"min":[
				-0.9296870231628418,
				-0.9982089996337891,
				-0.9668020009994507
			],
			"type":"VEC3"
		},
		{
			"bufferView":1,
			"componentType":5126,
			"count":32944,
			"type":"VEC3"
		},
		{
			"bufferView":2,
			"componentType":5126,
			"count":32944,
			"type":"VEC2"
		},
		{
			"bufferView":3,
			"componentType":5123,
			"count":149997,
			"type":"SCALAR"
		}
	],
	"bufferViews":[
		{
			"buffer":0,
			"byteLength":395328,
			"byteOffset":0,
			"target":34962
		},
		{
			"buffer":0,
			"byteLength":395328,
			"byteOffset":395328,
			"target":34962
		},
		{
			"buffer":0,
			"byteLength":263552,
			"byteOffset":790656,
			"target":34962
		},
		{
			"buffer":0,
			"byteLength":299994,
			"byteOffset":1054208,
			"target":34963
		}
	],
	"samplers":[
		{
			"magFilter":9729,
			"minFilter":9987
		}
	],
	"buffers":[
		{
			"byteLength":1354204,
			"uri":"TREE0059.bin"
		}
	]
}
