{
	"asset":{
		"generator":"Khronos glTF Blender I/O v4.2.60",
		"version":"2.0"
	},
	"scene":0,
	"scenes":[
		{
			"name":"Scene",
			"nodes":[
				0
			]
		}
	],
	"nodes":[
		{
			"mesh":0,
			"name":"Mesh_0"
		}
	],
	"materials":[
		{
			"doubleSided":true,
			"name":"Material_0.012",
			"pbrMetallicRoughness":{
				"baseColorTexture":{
					"index":0
				},
				"metallicFactor":0,
				"roughnessFactor":0.800000011920929
			}
		}
	],
	"meshes":[
		{
			"name":"Mesh_0.012",
			"primitives":[
				{
					"attributes":{
						"POSITION":0,
						"NORMAL":1,
						"TEXCOORD_0":2
					},
					"indices":3,
					"material":0
				}
			]
		}
	],
	"textures":[
		{
			"sampler":0,
			"source":0
		}
	],
	"images":[
		{
			"mimeType":"image/jpeg",
			"name":"Image_0",
			"uri":"Image_0.jpg"
		}
	],
	"accessors":[
		{
			"bufferView":0,
			"componentType":5126,
			"count":48041,
			"max":[
				1.0021300315856934,
				0.9461079835891724,
				0.9580429792404175
			],
			"min":[
				-1.0036849975585938,
				-0.961821973323822,
				-0.9645640254020691
			],
			"type":"VEC3"
		},
		{
			"bufferView":1,
			"componentType":5126,
			"count":48041,
			"type":"VEC3"
		},
		{
			"bufferView":2,
			"componentType":5126,
			"count":48041,
			"type":"VEC2"
		},
		{
			"bufferView":3,
			"componentType":5123,
			"count":150000,
			"type":"SCALAR"
		}
	],
	"bufferViews":[
		{
			"buffer":0,
			"byteLength":576492,
			"byteOffset":0,
			"target":34962
		},
		{
			"buffer":0,
			"byteLength":576492,
			"byteOffset":576492,
			"target":34962
		},
		{
			"buffer":0,
			"byteLength":384328,
			"byteOffset":1152984,
			"target":34962
		},
		{
			"buffer":0,
			"byteLength":300000,
			"byteOffset":1537312,
			"target":34963
		}
	],
	"samplers":[
		{
			"magFilter":9729,
			"minFilter":9987
		}
	],
	"buffers":[
		{
			"byteLength":1837312,
			"uri":"herb0066.bin"
		}
	]
}
