{
	"asset":{
		"generator":"Khronos glTF Blender I/O v4.2.60",
		"version":"2.0"
	},
	"scene":0,
	"scenes":[
		{
			"name":"Scene",
			"nodes":[
				0
			]
		}
	],
	"nodes":[
		{
			"mesh":0,
			"name":"Mesh_0.006"
		}
	],
	"materials":[
		{
			"doubleSided":true,
			"name":"Material_0.006",
			"pbrMetallicRoughness":{
				"baseColorTexture":{
					"index":0
				},
				"metallicFactor":0,
				"roughnessFactor":0.800000011920929
			}
		}
	],
	"meshes":[
		{
			"name":"Mesh_0.006",
			"primitives":[
				{
					"attributes":{
						"POSITION":0,
						"NORMAL":1,
						"TEXCOORD_0":2
					},
					"indices":3,
					"material":0
				}
			]
		}
	],
	"textures":[
		{
			"sampler":0,
			"source":0
		}
	],
	"images":[
		{
			"mimeType":"image/jpeg",
			"name":"Image_0",
			"uri":"Image_0.jpg"
		}
	],
	"accessors":[
		{
			"bufferView":0,
			"componentType":5126,
			"count":34034,
			"max":[
				0.9491389989852905,
				0.9918689727783203,
				0.9201229810714722
			],
			"min":[
				-0.9690250158309937,
				-1.0102800130844116,
				-0.9355409741401672
			],
			"type":"VEC3"
		},
		{
			"bufferView":1,
			"componentType":5126,
			"count":34034,
			"type":"VEC3"
		},
		{
			"bufferView":2,
			"componentType":5126,
			"count":34034,
			"type":"VEC2"
		},
		{
			"bufferView":3,
			"componentType":5123,
			"count":149997,
			"type":"SCALAR"
		}
	],
	"bufferViews":[
		{
			"buffer":0,
			"byteLength":408408,
			"byteOffset":0,
			"target":34962
		},
		{
			"buffer":0,
			"byteLength":408408,
			"byteOffset":408408,
			"target":34962
		},
		{
			"buffer":0,
			"byteLength":272272,
			"byteOffset":816816,
			"target":34962
		},
		{
			"buffer":0,
			"byteLength":299994,
			"byteOffset":1089088,
			"target":34963
		}
	],
	"samplers":[
		{
			"magFilter":9729,
			"minFilter":9987
		}
	],
	"buffers":[
		{
			"byteLength":1389084,
			"uri":"herb0003gltf.bin"
		}
	]
}
