{
	"asset":{
		"generator":"Khronos glTF Blender I/O v4.2.60",
		"version":"2.0"
	},
	"scene":0,
	"scenes":[
		{
			"name":"Scene",
			"nodes":[
				0
			]
		}
	],
	"nodes":[
		{
			"mesh":0,
			"name":"Mesh_0"
		}
	],
	"materials":[
		{
			"doubleSided":true,
			"name":"Material_0.005",
			"pbrMetallicRoughness":{
				"baseColorTexture":{
					"index":0
				},
				"metallicFactor":0,
				"roughnessFactor":0.800000011920929
			}
		}
	],
	"meshes":[
		{
			"name":"Mesh_0.005",
			"primitives":[
				{
					"attributes":{
						"POSITION":0,
						"NORMAL":1,
						"TEXCOORD_0":2
					},
					"indices":3,
					"material":0
				}
			]
		}
	],
	"textures":[
		{
			"sampler":0,
			"source":0
		}
	],
	"images":[
		{
			"mimeType":"image/jpeg",
			"name":"Image_0",
			"uri":"Image_0.jpg"
		}
	],
	"accessors":[
		{
			"bufferView":0,
			"componentType":5126,
			"count":53742,
			"max":[
				0.8536990284919739,
				0.9976149797439575,
				0.7754909992218018
			],
			"min":[
				-0.8570410013198853,
				-0.9914039969444275,
				-0.7607179880142212
			],
			"type":"VEC3"
		},
		{
			"bufferView":1,
			"componentType":5126,
			"count":53742,
			"type":"VEC3"
		},
		{
			"bufferView":2,
			"componentType":5126,
			"count":53742,
			"type":"VEC2"
		},
		{
			"bufferView":3,
			"componentType":5123,
			"count":149997,
			"type":"SCALAR"
		}
	],
	"bufferViews":[
		{
			"buffer":0,
			"byteLength":644904,
			"byteOffset":0,
			"target":34962
		},
		{
			"buffer":0,
			"byteLength":644904,
			"byteOffset":644904,
			"target":34962
		},
		{
			"buffer":0,
			"byteLength":429936,
			"byteOffset":1289808,
			"target":34962
		},
		{
			"buffer":0,
			"byteLength":299994,
			"byteOffset":1719744,
			"target":34963
		}
	],
	"samplers":[
		{
			"magFilter":9729,
			"minFilter":9987
		}
	],
	"buffers":[
		{
			"byteLength":2019740,
			"uri":"herb0022.bin"
		}
	]
}
