{
	"asset":{
		"generator":"Khronos glTF Blender I/O v4.2.60",
		"version":"2.0"
	},
	"scene":0,
	"scenes":[
		{
			"name":"Scene",
			"nodes":[
				0
			]
		}
	],
	"nodes":[
		{
			"mesh":0,
			"name":"Mesh_0.056"
		}
	],
	"materials":[
		{
			"doubleSided":true,
			"name":"Material_0.056",
			"pbrMetallicRoughness":{
				"baseColorTexture":{
					"index":0
				},
				"metallicFactor":0,
				"roughnessFactor":0.800000011920929
			}
		}
	],
	"meshes":[
		{
			"name":"Mesh_0.056",
			"primitives":[
				{
					"attributes":{
						"POSITION":0,
						"NORMAL":1,
						"TEXCOORD_0":2
					},
					"indices":3,
					"material":0
				}
			]
		}
	],
	"textures":[
		{
			"sampler":0,
			"source":0
		}
	],
	"images":[
		{
			"mimeType":"image/jpeg",
			"name":"Image_0",
			"uri":"Image_0.jpg"
		}
	],
	"accessors":[
		{
			"bufferView":0,
			"componentType":5126,
			"count":42561,
			"max":[
				0.9501619935035706,
				0.9650920033454895,
				0.9385200142860413
			],
			"min":[
				-0.9869779944419861,
				-0.9787949919700623,
				-0.9392960071563721
			],
			"type":"VEC3"
		},
		{
			"bufferView":1,
			"componentType":5126,
			"count":42561,
			"type":"VEC3"
		},
		{
			"bufferView":2,
			"componentType":5126,
			"count":42561,
			"type":"VEC2"
		},
		{
			"bufferView":3,
			"componentType":5123,
			"count":149997,
			"type":"SCALAR"
		}
	],
	"bufferViews":[
		{
			"buffer":0,
			"byteLength":510732,
			"byteOffset":0,
			"target":34962
		},
		{
			"buffer":0,
			"byteLength":510732,
			"byteOffset":510732,
			"target":34962
		},
		{
			"buffer":0,
			"byteLength":340488,
			"byteOffset":1021464,
			"target":34962
		},
		{
			"buffer":0,
			"byteLength":299994,
			"byteOffset":1361952,
			"target":34963
		}
	],
	"samplers":[
		{
			"magFilter":9729,
			"minFilter":9987
		}
	],
	"buffers":[
		{
			"byteLength":1661948,
			"uri":"TREE0073.bin"
		}
	]
}
