{
	"asset":{
		"generator":"Khronos glTF Blender I/O v4.2.60",
		"version":"2.0"
	},
	"scene":0,
	"scenes":[
		{
			"name":"Scene",
			"nodes":[
				0
			]
		}
	],
	"nodes":[
		{
			"mesh":0,
			"name":"Mesh_0.027"
		}
	],
	"materials":[
		{
			"doubleSided":true,
			"name":"Material_0.027",
			"pbrMetallicRoughness":{
				"baseColorTexture":{
					"index":0
				},
				"metallicFactor":0,
				"roughnessFactor":0.800000011920929
			}
		}
	],
	"meshes":[
		{
			"name":"Mesh_0.027",
			"primitives":[
				{
					"attributes":{
						"POSITION":0,
						"NORMAL":1,
						"TEXCOORD_0":2
					},
					"indices":3,
					"material":0
				}
			]
		}
	],
	"textures":[
		{
			"sampler":0,
			"source":0
		}
	],
	"images":[
		{
			"mimeType":"image/jpeg",
			"name":"Image_0",
			"uri":"Image_0.jpg"
		}
	],
	"accessors":[
		{
			"bufferView":0,
			"componentType":5126,
			"count":43043,
			"max":[
				0.7083309888839722,
				0.9989489912986755,
				0.692559003829956
			],
			"min":[
				-0.7153589725494385,
				-1.0015519857406616,
				-0.7084479928016663
			],
			"type":"VEC3"
		},
		{
			"bufferView":1,
			"componentType":5126,
			"count":43043,
			"type":"VEC3"
		},
		{
			"bufferView":2,
			"componentType":5126,
			"count":43043,
			"type":"VEC2"
		},
		{
			"bufferView":3,
			"componentType":5123,
			"count":149997,
			"type":"SCALAR"
		}
	],
	"bufferViews":[
		{
			"buffer":0,
			"byteLength":516516,
			"byteOffset":0,
			"target":34962
		},
		{
			"buffer":0,
			"byteLength":516516,
			"byteOffset":516516,
			"target":34962
		},
		{
			"buffer":0,
			"byteLength":344344,
			"byteOffset":1033032,
			"target":34962
		},
		{
			"buffer":0,
			"byteLength":299994,
			"byteOffset":1377376,
			"target":34963
		}
	],
	"samplers":[
		{
			"magFilter":9729,
			"minFilter":9987
		}
	],
	"buffers":[
		{
			"byteLength":1677372,
			"uri":"HERB0083.bin"
		}
	]
}
