{
	"asset":{
		"generator":"Khronos glTF Blender I/O v4.2.60",
		"version":"2.0"
	},
	"scene":0,
	"scenes":[
		{
			"name":"Scene",
			"nodes":[
				0
			]
		}
	],
	"nodes":[
		{
			"mesh":0,
			"name":"Mesh_0"
		}
	],
	"materials":[
		{
			"doubleSided":true,
			"name":"Material_0.007",
			"pbrMetallicRoughness":{
				"baseColorTexture":{
					"index":0
				},
				"metallicFactor":0,
				"roughnessFactor":0.800000011920929
			}
		}
	],
	"meshes":[
		{
			"name":"Mesh_0.007",
			"primitives":[
				{
					"attributes":{
						"POSITION":0,
						"NORMAL":1,
						"TEXCOORD_0":2
					},
					"indices":3,
					"material":0
				}
			]
		}
	],
	"textures":[
		{
			"sampler":0,
			"source":0
		}
	],
	"images":[
		{
			"mimeType":"image/jpeg",
			"name":"Image_0",
			"uri":"Image_0.jpg"
		}
	],
	"accessors":[
		{
			"bufferView":0,
			"componentType":5126,
			"count":39103,
			"max":[
				0.9610049724578857,
				0.9989309906959534,
				0.9257360100746155
			],
			"min":[
				-0.9552630186080933,
				-0.9982569813728333,
				-0.9192140102386475
			],
			"type":"VEC3"
		},
		{
			"bufferView":1,
			"componentType":5126,
			"count":39103,
			"type":"VEC3"
		},
		{
			"bufferView":2,
			"componentType":5126,
			"count":39103,
			"type":"VEC2"
		},
		{
			"bufferView":3,
			"componentType":5123,
			"count":150000,
			"type":"SCALAR"
		}
	],
	"bufferViews":[
		{
			"buffer":0,
			"byteLength":469236,
			"byteOffset":0,
			"target":34962
		},
		{
			"buffer":0,
			"byteLength":469236,
			"byteOffset":469236,
			"target":34962
		},
		{
			"buffer":0,
			"byteLength":312824,
			"byteOffset":938472,
			"target":34962
		},
		{
			"buffer":0,
			"byteLength":300000,
			"byteOffset":1251296,
			"target":34963
		}
	],
	"samplers":[
		{
			"magFilter":9729,
			"minFilter":9987
		}
	],
	"buffers":[
		{
			"byteLength":1551296,
			"uri":"herb0054.bin"
		}
	]
}
