{
	"asset":{
		"generator":"Khronos glTF Blender I/O v4.2.60",
		"version":"2.0"
	},
	"scene":0,
	"scenes":[
		{
			"name":"Scene",
			"nodes":[
				0
			]
		}
	],
	"nodes":[
		{
			"mesh":0,
			"name":"Mesh_0.048"
		}
	],
	"materials":[
		{
			"doubleSided":true,
			"name":"Material_0.048",
			"pbrMetallicRoughness":{
				"baseColorTexture":{
					"index":0
				},
				"metallicFactor":0,
				"roughnessFactor":0.800000011920929
			}
		}
	],
	"meshes":[
		{
			"name":"Mesh_0.048",
			"primitives":[
				{
					"attributes":{
						"POSITION":0,
						"NORMAL":1,
						"TEXCOORD_0":2
					},
					"indices":3,
					"material":0
				}
			]
		}
	],
	"textures":[
		{
			"sampler":0,
			"source":0
		}
	],
	"images":[
		{
			"mimeType":"image/jpeg",
			"name":"Image_0",
			"uri":"Image_0.jpg"
		}
	],
	"accessors":[
		{
			"bufferView":0,
			"componentType":5126,
			"count":47497,
			"max":[
				0.9821850061416626,
				0.968517005443573,
				0.911736011505127
			],
			"min":[
				-0.9657670259475708,
				-1.0318870544433594,
				-0.8832119703292847
			],
			"type":"VEC3"
		},
		{
			"bufferView":1,
			"componentType":5126,
			"count":47497,
			"type":"VEC3"
		},
		{
			"bufferView":2,
			"componentType":5126,
			"count":47497,
			"type":"VEC2"
		},
		{
			"bufferView":3,
			"componentType":5123,
			"count":129771,
			"type":"SCALAR"
		}
	],
	"bufferViews":[
		{
			"buffer":0,
			"byteLength":569964,
			"byteOffset":0,
			"target":34962
		},
		{
			"buffer":0,
			"byteLength":569964,
			"byteOffset":569964,
			"target":34962
		},
		{
			"buffer":0,
			"byteLength":379976,
			"byteOffset":1139928,
			"target":34962
		},
		{
			"buffer":0,
			"byteLength":259542,
			"byteOffset":1519904,
			"target":34963
		}
	],
	"samplers":[
		{
			"magFilter":9729,
			"minFilter":9987
		}
	],
	"buffers":[
		{
			"byteLength":1779448,
			"uri":"TREE0012..bin"
		}
	]
}
