{
	"asset":{
		"generator":"Khronos glTF Blender I/O v4.2.60",
		"version":"2.0"
	},
	"scene":0,
	"scenes":[
		{
			"name":"Scene",
			"nodes":[
				0
			]
		}
	],
	"nodes":[
		{
			"mesh":0,
			"name":"Mesh_0.029"
		}
	],
	"materials":[
		{
			"doubleSided":true,
			"name":"Material_0.029",
			"pbrMetallicRoughness":{
				"baseColorTexture":{
					"index":0
				},
				"metallicFactor":0,
				"roughnessFactor":0.800000011920929
			}
		}
	],
	"meshes":[
		{
			"name":"Mesh_0.029",
			"primitives":[
				{
					"attributes":{
						"POSITION":0,
						"NORMAL":1,
						"TEXCOORD_0":2
					},
					"indices":3,
					"material":0
				}
			]
		}
	],
	"textures":[
		{
			"sampler":0,
			"source":0
		}
	],
	"images":[
		{
			"mimeType":"image/jpeg",
			"name":"Image_0",
			"uri":"Image_0.jpg"
		}
	],
	"accessors":[
		{
			"bufferView":0,
			"componentType":5126,
			"count":46607,
			"max":[
				0.4437580108642578,
				0.9859179854393005,
				0.42477700114250183
			],
			"min":[
				-0.44242700934410095,
				-1.0017160177230835,
				-0.42464399337768555
			],
			"type":"VEC3"
		},
		{
			"bufferView":1,
			"componentType":5126,
			"count":46607,
			"type":"VEC3"
		},
		{
			"bufferView":2,
			"componentType":5126,
			"count":46607,
			"type":"VEC2"
		},
		{
			"bufferView":3,
			"componentType":5123,
			"count":112122,
			"type":"SCALAR"
		}
	],
	"bufferViews":[
		{
			"buffer":0,
			"byteLength":559284,
			"byteOffset":0,
			"target":34962
		},
		{
			"buffer":0,
			"byteLength":559284,
			"byteOffset":559284,
			"target":34962
		},
		{
			"buffer":0,
			"byteLength":372856,
			"byteOffset":1118568,
			"target":34962
		},
		{
			"buffer":0,
			"byteLength":224244,
			"byteOffset":1491424,
			"target":34963
		}
	],
	"samplers":[
		{
			"magFilter":9729,
			"minFilter":9987
		}
	],
	"buffers":[
		{
			"byteLength":1715668,
			"uri":"tree0028.bin"
		}
	]
}
