{
	"asset":{
		"generator":"Khronos glTF Blender I/O v4.2.60",
		"version":"2.0"
	},
	"scene":0,
	"scenes":[
		{
			"name":"Scene",
			"nodes":[
				0
			]
		}
	],
	"nodes":[
		{
			"mesh":0,
			"name":"Mesh_0.028"
		}
	],
	"materials":[
		{
			"doubleSided":true,
			"name":"Material_0.028",
			"pbrMetallicRoughness":{
				"baseColorTexture":{
					"index":0
				},
				"metallicFactor":0,
				"roughnessFactor":0.800000011920929
			}
		}
	],
	"meshes":[
		{
			"name":"Mesh_0.028",
			"primitives":[
				{
					"attributes":{
						"POSITION":0,
						"NORMAL":1,
						"TEXCOORD_0":2
					},
					"indices":3,
					"material":0
				}
			]
		}
	],
	"textures":[
		{
			"sampler":0,
			"source":0
		}
	],
	"images":[
		{
			"mimeType":"image/jpeg",
			"name":"Image_0",
			"uri":"Image_0.jpg"
		}
	],
	"accessors":[
		{
			"bufferView":0,
			"componentType":5126,
			"count":38866,
			"max":[
				0.9691879749298096,
				0.7792220115661621,
				0.9969750046730042
			],
			"min":[
				-0.9716320037841797,
				-0.7941700220108032,
				-0.9975069761276245
			],
			"type":"VEC3"
		},
		{
			"bufferView":1,
			"componentType":5126,
			"count":38866,
			"type":"VEC3"
		},
		{
			"bufferView":2,
			"componentType":5126,
			"count":38866,
			"type":"VEC2"
		},
		{
			"bufferView":3,
			"componentType":5123,
			"count":150000,
			"type":"SCALAR"
		}
	],
	"bufferViews":[
		{
			"buffer":0,
			"byteLength":466392,
			"byteOffset":0,
			"target":34962
		},
		{
			"buffer":0,
			"byteLength":466392,
			"byteOffset":466392,
			"target":34962
		},
		{
			"buffer":0,
			"byteLength":310928,
			"byteOffset":932784,
			"target":34962
		},
		{
			"buffer":0,
			"byteLength":300000,
			"byteOffset":1243712,
			"target":34963
		}
	],
	"samplers":[
		{
			"magFilter":9729,
			"minFilter":9987
		}
	],
	"buffers":[
		{
			"byteLength":1543712,
			"uri":"HERB0087.bin"
		}
	]
}
