{
	"asset":{
		"generator":"Khronos glTF Blender I/O v4.2.60",
		"version":"2.0"
	},
	"scene":0,
	"scenes":[
		{
			"name":"Scene",
			"nodes":[
				0
			]
		}
	],
	"nodes":[
		{
			"mesh":0,
			"name":"Mesh_0.006"
		}
	],
	"materials":[
		{
			"doubleSided":true,
			"name":"Material_0.006",
			"pbrMetallicRoughness":{
				"baseColorTexture":{
					"index":0
				},
				"metallicFactor":0,
				"roughnessFactor":0.800000011920929
			}
		}
	],
	"meshes":[
		{
			"name":"Mesh_0.006",
			"primitives":[
				{
					"attributes":{
						"POSITION":0,
						"NORMAL":1,
						"TEXCOORD_0":2
					},
					"indices":3,
					"material":0
				}
			]
		}
	],
	"textures":[
		{
			"sampler":0,
			"source":0
		}
	],
	"images":[
		{
			"mimeType":"image/jpeg",
			"name":"Image_0",
			"uri":"Image_0.jpg"
		}
	],
	"accessors":[
		{
			"bufferView":0,
			"componentType":5126,
			"count":33868,
			"max":[
				0.9900469779968262,
				0.998649001121521,
				0.8639190196990967
			],
			"min":[
				-0.9979310035705566,
				-1.0032700300216675,
				-0.86593097448349
			],
			"type":"VEC3"
		},
		{
			"bufferView":1,
			"componentType":5126,
			"count":33868,
			"type":"VEC3"
		},
		{
			"bufferView":2,
			"componentType":5126,
			"count":33868,
			"type":"VEC2"
		},
		{
			"bufferView":3,
			"componentType":5123,
			"count":149997,
			"type":"SCALAR"
		}
	],
	"bufferViews":[
		{
			"buffer":0,
			"byteLength":406416,
			"byteOffset":0,
			"target":34962
		},
		{
			"buffer":0,
			"byteLength":406416,
			"byteOffset":406416,
			"target":34962
		},
		{
			"buffer":0,
			"byteLength":270944,
			"byteOffset":812832,
			"target":34962
		},
		{
			"buffer":0,
			"byteLength":299994,
			"byteOffset":1083776,
			"target":34963
		}
	],
	"samplers":[
		{
			"magFilter":9729,
			"minFilter":9987
		}
	],
	"buffers":[
		{
			"byteLength":1383772,
			"uri":"climber0044.bin"
		}
	]
}
