{
	"asset":{
		"generator":"Khronos glTF Blender I/O v4.2.60",
		"version":"2.0"
	},
	"scene":0,
	"scenes":[
		{
			"name":"Scene",
			"nodes":[
				0
			]
		}
	],
	"nodes":[
		{
			"mesh":0,
			"name":"Mesh_0.018"
		}
	],
	"materials":[
		{
			"doubleSided":true,
			"name":"Material_0.018",
			"pbrMetallicRoughness":{
				"baseColorTexture":{
					"index":0
				},
				"metallicFactor":0,
				"roughnessFactor":0.800000011920929
			}
		}
	],
	"meshes":[
		{
			"name":"Mesh_0.018",
			"primitives":[
				{
					"attributes":{
						"POSITION":0,
						"NORMAL":1,
						"TEXCOORD_0":2
					},
					"indices":3,
					"material":0
				}
			]
		}
	],
	"textures":[
		{
			"sampler":0,
			"source":0
		}
	],
	"images":[
		{
			"mimeType":"image/jpeg",
			"name":"Image_0",
			"uri":"Image_0.jpg"
		}
	],
	"accessors":[
		{
			"bufferView":0,
			"componentType":5126,
			"count":41302,
			"max":[
				0.746209979057312,
				1.0054869651794434,
				0.7323169708251953
			],
			"min":[
				-0.7447140216827393,
				-1.0016180276870728,
				-0.7353529930114746
			],
			"type":"VEC3"
		},
		{
			"bufferView":1,
			"componentType":5126,
			"count":41302,
			"type":"VEC3"
		},
		{
			"bufferView":2,
			"componentType":5126,
			"count":41302,
			"type":"VEC2"
		},
		{
			"bufferView":3,
			"componentType":5123,
			"count":149997,
			"type":"SCALAR"
		}
	],
	"bufferViews":[
		{
			"buffer":0,
			"byteLength":495624,
			"byteOffset":0,
			"target":34962
		},
		{
			"buffer":0,
			"byteLength":495624,
			"byteOffset":495624,
			"target":34962
		},
		{
			"buffer":0,
			"byteLength":330416,
			"byteOffset":991248,
			"target":34962
		},
		{
			"buffer":0,
			"byteLength":299994,
			"byteOffset":1321664,
			"target":34963
		}
	],
	"samplers":[
		{
			"magFilter":9729,
			"minFilter":9987
		}
	],
	"buffers":[
		{
			"byteLength":1621660,
			"uri":"HERB0048.bin"
		}
	]
}
