{
	"asset":{
		"generator":"Khronos glTF Blender I/O v4.2.60",
		"version":"2.0"
	},
	"scene":0,
	"scenes":[
		{
			"name":"Scene",
			"nodes":[
				0
			]
		}
	],
	"nodes":[
		{
			"mesh":0,
			"name":"Mesh_0.040"
		}
	],
	"materials":[
		{
			"doubleSided":true,
			"name":"Material_0.040",
			"pbrMetallicRoughness":{
				"baseColorTexture":{
					"index":0
				},
				"metallicFactor":0,
				"roughnessFactor":0.800000011920929
			}
		}
	],
	"meshes":[
		{
			"name":"Mesh_0.040",
			"primitives":[
				{
					"attributes":{
						"POSITION":0,
						"NORMAL":1,
						"TEXCOORD_0":2
					},
					"indices":3,
					"material":0
				}
			]
		}
	],
	"textures":[
		{
			"sampler":0,
			"source":0
		}
	],
	"images":[
		{
			"mimeType":"image/jpeg",
			"name":"Image_0",
			"uri":"Image_0.jpg"
		}
	],
	"accessors":[
		{
			"bufferView":0,
			"componentType":5126,
			"count":46489,
			"max":[
				0.6986849904060364,
				0.9962930083274841,
				0.7716529965400696
			],
			"min":[
				-0.7110069990158081,
				-0.9897509813308716,
				-0.7905570268630981
			],
			"type":"VEC3"
		},
		{
			"bufferView":1,
			"componentType":5126,
			"count":46489,
			"type":"VEC3"
		},
		{
			"bufferView":2,
			"componentType":5126,
			"count":46489,
			"type":"VEC2"
		},
		{
			"bufferView":3,
			"componentType":5123,
			"count":149997,
			"type":"SCALAR"
		}
	],
	"bufferViews":[
		{
			"buffer":0,
			"byteLength":557868,
			"byteOffset":0,
			"target":34962
		},
		{
			"buffer":0,
			"byteLength":557868,
			"byteOffset":557868,
			"target":34962
		},
		{
			"buffer":0,
			"byteLength":371912,
			"byteOffset":1115736,
			"target":34962
		},
		{
			"buffer":0,
			"byteLength":299994,
			"byteOffset":1487648,
			"target":34963
		}
	],
	"samplers":[
		{
			"magFilter":9729,
			"minFilter":9987
		}
	],
	"buffers":[
		{
			"byteLength":1787644,
			"uri":"SHRUB0040.bin"
		}
	]
}
