{
	"asset":{
		"generator":"Khronos glTF Blender I/O v4.2.60",
		"version":"2.0"
	},
	"scene":0,
	"scenes":[
		{
			"name":"Scene",
			"nodes":[
				0
			]
		}
	],
	"nodes":[
		{
			"mesh":0,
			"name":"Mesh_0.026"
		}
	],
	"materials":[
		{
			"doubleSided":true,
			"name":"Material_0.026",
			"pbrMetallicRoughness":{
				"baseColorTexture":{
					"index":0
				},
				"metallicFactor":0,
				"roughnessFactor":0.800000011920929
			}
		}
	],
	"meshes":[
		{
			"name":"Mesh_0.026",
			"primitives":[
				{
					"attributes":{
						"POSITION":0,
						"NORMAL":1,
						"TEXCOORD_0":2
					},
					"indices":3,
					"material":0
				}
			]
		}
	],
	"textures":[
		{
			"sampler":0,
			"source":0
		}
	],
	"images":[
		{
			"mimeType":"image/jpeg",
			"name":"Image_0",
			"uri":"Image_0.jpg"
		}
	],
	"accessors":[
		{
			"bufferView":0,
			"componentType":5126,
			"count":41637,
			"max":[
				0.997859001159668,
				0.9357320070266724,
				0.7620099782943726
			],
			"min":[
				-1.0035099983215332,
				-0.9298440217971802,
				-0.7730010151863098
			],
			"type":"VEC3"
		},
		{
			"bufferView":1,
			"componentType":5126,
			"count":41637,
			"type":"VEC3"
		},
		{
			"bufferView":2,
			"componentType":5126,
			"count":41637,
			"type":"VEC2"
		},
		{
			"bufferView":3,
			"componentType":5123,
			"count":179211,
			"type":"SCALAR"
		}
	],
	"bufferViews":[
		{
			"buffer":0,
			"byteLength":499644,
			"byteOffset":0,
			"target":34962
		},
		{
			"buffer":0,
			"byteLength":499644,
			"byteOffset":499644,
			"target":34962
		},
		{
			"buffer":0,
			"byteLength":333096,
			"byteOffset":999288,
			"target":34962
		},
		{
			"buffer":0,
			"byteLength":358422,
			"byteOffset":1332384,
			"target":34963
		}
	],
	"samplers":[
		{
			"magFilter":9729,
			"minFilter":9987
		}
	],
	"buffers":[
		{
			"byteLength":1690808,
			"uri":"climber0019.bin"
		}
	]
}
