{
	"asset":{
		"generator":"Khronos glTF Blender I/O v4.2.60",
		"version":"2.0"
	},
	"scene":0,
	"scenes":[
		{
			"name":"Scene",
			"nodes":[
				0
			]
		}
	],
	"nodes":[
		{
			"mesh":0,
			"name":"Mesh_0.002"
		}
	],
	"materials":[
		{
			"doubleSided":true,
			"name":"Material_0.002",
			"pbrMetallicRoughness":{
				"baseColorTexture":{
					"index":0
				},
				"metallicFactor":0,
				"roughnessFactor":0.800000011920929
			}
		}
	],
	"meshes":[
		{
			"name":"Mesh_0.002",
			"primitives":[
				{
					"attributes":{
						"POSITION":0,
						"NORMAL":1,
						"TEXCOORD_0":2
					},
					"indices":3,
					"material":0
				}
			]
		}
	],
	"textures":[
		{
			"sampler":0,
			"source":0
		}
	],
	"images":[
		{
			"mimeType":"image/jpeg",
			"name":"Image_0",
			"uri":"Image_0.jpg"
		}
	],
	"accessors":[
		{
			"bufferView":0,
			"componentType":5126,
			"count":37280,
			"max":[
				0.989342987537384,
				0.9610909819602966,
				0.3502599895000458
			],
			"min":[
				-1.0060189962387085,
				-0.9750660061836243,
				-0.3523690104484558
			],
			"type":"VEC3"
		},
		{
			"bufferView":1,
			"componentType":5126,
			"count":37280,
			"type":"VEC3"
		},
		{
			"bufferView":2,
			"componentType":5126,
			"count":37280,
			"type":"VEC2"
		},
		{
			"bufferView":3,
			"componentType":5123,
			"count":149997,
			"type":"SCALAR"
		}
	],
	"bufferViews":[
		{
			"buffer":0,
			"byteLength":447360,
			"byteOffset":0,
			"target":34962
		},
		{
			"buffer":0,
			"byteLength":447360,
			"byteOffset":447360,
			"target":34962
		},
		{
			"buffer":0,
			"byteLength":298240,
			"byteOffset":894720,
			"target":34962
		},
		{
			"buffer":0,
			"byteLength":299994,
			"byteOffset":1192960,
			"target":34963
		}
	],
	"samplers":[
		{
			"magFilter":9729,
			"minFilter":9987
		}
	],
	"buffers":[
		{
			"byteLength":1492956,
			"uri":"creeper0049.bin"
		}
	]
}
