{
	"asset":{
		"generator":"Khronos glTF Blender I/O v4.2.60",
		"version":"2.0"
	},
	"scene":0,
	"scenes":[
		{
			"name":"Scene",
			"nodes":[
				0
			]
		}
	],
	"nodes":[
		{
			"mesh":0,
			"name":"Mesh_0"
		}
	],
	"materials":[
		{
			"doubleSided":true,
			"name":"Material_0.024",
			"pbrMetallicRoughness":{
				"baseColorTexture":{
					"index":0
				},
				"metallicFactor":0,
				"roughnessFactor":0.800000011920929
			}
		}
	],
	"meshes":[
		{
			"name":"Mesh_0.024",
			"primitives":[
				{
					"attributes":{
						"POSITION":0,
						"NORMAL":1,
						"TEXCOORD_0":2
					},
					"indices":3,
					"material":0
				}
			]
		}
	],
	"textures":[
		{
			"sampler":0,
			"source":0
		}
	],
	"images":[
		{
			"mimeType":"image/jpeg",
			"name":"Image_0",
			"uri":"Image_0.jpg"
		}
	],
	"accessors":[
		{
			"bufferView":0,
			"componentType":5126,
			"count":50479,
			"max":[
				0.4592669904232025,
				0.9947800040245056,
				0.46626201272010803
			],
			"min":[
				-0.4407849907875061,
				-0.997672975063324,
				-0.4710789918899536
			],
			"type":"VEC3"
		},
		{
			"bufferView":1,
			"componentType":5126,
			"count":50479,
			"type":"VEC3"
		},
		{
			"bufferView":2,
			"componentType":5126,
			"count":50479,
			"type":"VEC2"
		},
		{
			"bufferView":3,
			"componentType":5123,
			"count":149997,
			"type":"SCALAR"
		}
	],
	"bufferViews":[
		{
			"buffer":0,
			"byteLength":605748,
			"byteOffset":0,
			"target":34962
		},
		{
			"buffer":0,
			"byteLength":605748,
			"byteOffset":605748,
			"target":34962
		},
		{
			"buffer":0,
			"byteLength":403832,
			"byteOffset":1211496,
			"target":34962
		},
		{
			"buffer":0,
			"byteLength":299994,
			"byteOffset":1615328,
			"target":34963
		}
	],
	"samplers":[
		{
			"magFilter":9729,
			"minFilter":9987
		}
	],
	"buffers":[
		{
			"byteLength":1915324,
			"uri":"CLIMBER0035.bin"
		}
	]
}
