{
	"asset":{
		"generator":"Khronos glTF Blender I/O v4.2.60",
		"version":"2.0"
	},
	"scene":0,
	"scenes":[
		{
			"name":"Scene",
			"nodes":[
				0
			]
		}
	],
	"nodes":[
		{
			"mesh":0,
			"name":"Mesh_0.044"
		}
	],
	"materials":[
		{
			"doubleSided":true,
			"name":"Material_0.044",
			"pbrMetallicRoughness":{
				"baseColorTexture":{
					"index":0
				},
				"metallicFactor":0,
				"roughnessFactor":0.800000011920929
			}
		}
	],
	"meshes":[
		{
			"name":"Mesh_0.044",
			"primitives":[
				{
					"attributes":{
						"POSITION":0,
						"NORMAL":1,
						"TEXCOORD_0":2
					},
					"indices":3,
					"material":0
				}
			]
		}
	],
	"textures":[
		{
			"sampler":0,
			"source":0
		}
	],
	"images":[
		{
			"mimeType":"image/jpeg",
			"name":"Image_0",
			"uri":"Image_0.jpg"
		}
	],
	"accessors":[
		{
			"bufferView":0,
			"componentType":5126,
			"count":33239,
			"max":[
				0.6929659843444824,
				0.9949359893798828,
				0.7226679921150208
			],
			"min":[
				-0.6976690292358398,
				-1.0104800462722778,
				-0.7233679890632629
			],
			"type":"VEC3"
		},
		{
			"bufferView":1,
			"componentType":5126,
			"count":33239,
			"type":"VEC3"
		},
		{
			"bufferView":2,
			"componentType":5126,
			"count":33239,
			"type":"VEC2"
		},
		{
			"bufferView":3,
			"componentType":5123,
			"count":149997,
			"type":"SCALAR"
		}
	],
	"bufferViews":[
		{
			"buffer":0,
			"byteLength":398868,
			"byteOffset":0,
			"target":34962
		},
		{
			"buffer":0,
			"byteLength":398868,
			"byteOffset":398868,
			"target":34962
		},
		{
			"buffer":0,
			"byteLength":265912,
			"byteOffset":797736,
			"target":34962
		},
		{
			"buffer":0,
			"byteLength":299994,
			"byteOffset":1063648,
			"target":34963
		}
	],
	"samplers":[
		{
			"magFilter":9729,
			"minFilter":9987
		}
	],
	"buffers":[
		{
			"byteLength":1363644,
			"uri":"SHRUB0076.bin"
		}
	]
}
